<svg width="205" height="212" viewBox="0 0 205 212" fill="none" xmlns="http://www.w3.org/2000/svg">
<g clip-path="url(#clip0_356_13157)">
<path d="M204.346 185.107C204.346 185.107 207.303 203.014 163.654 194.745C120.004 186.476 187.209 172.897 187.209 172.897C187.209 172.897 200.293 172.905 204.346 185.107Z" fill="#3870C2"/>
<path d="M39.6804 201.991C13.7592 210.217 2.17609 198.576 1.49091 190.004C1.39176 188.929 1.49201 187.845 1.78662 186.806C4.24604 178.494 15.656 137.745 15.656 137.745C15.656 137.745 44.6642 167.581 48.1622 187.001C49.4099 193.937 47.4121 199.513 39.6804 201.991Z" fill="#FFF7F4"/>
<path d="M39.6802 201.991C21.9234 207.624 10.8884 203.936 5.47915 198.303C3.92561 196.674 3.00865 194.542 2.89484 192.296C2.78103 190.049 3.4779 187.835 4.85889 186.058C7.08751 183.177 9.7633 179.532 10.9894 178.365C20.0049 169.779 32.9799 158.455 54.4223 162.453C55.6701 169.39 47.4119 199.514 39.6802 201.991Z" fill="#3870C2"/>
<path d="M143.423 55.0667C143.423 55.0667 146.272 43.5416 135.547 41.2942C135.547 41.2942 143.084 27.3487 132.698 15.1465C132.698 15.1465 129.85 11.833 121.159 9.21824H121.058L121.159 8.9013C115.295 -4.5255 103.734 4.71623 103.734 4.71623C88.9843 -4.69838 85.2987 9.24705 85.2987 9.24705C76.5862 11.8618 73.7589 15.1753 73.7589 15.1753C63.3731 27.3776 70.874 41.323 70.874 41.323C60.142 43.5632 62.9909 55.0667 62.9909 55.0667C62.9909 55.0667 46.0706 60.2963 48.2488 74.9404C50.4269 89.5845 64.3324 92.9052 64.3324 92.9052H142.096C142.096 92.9052 156.002 89.5917 158.18 74.9476C160.358 60.3035 143.423 55.0667 143.423 55.0667Z" fill="#1E1F21"/>
<path d="M190.722 174.158C190.722 174.158 190.073 132.379 184.022 115.293C177.97 98.2068 161.216 92.9053 161.216 92.9053L120.351 83.8652L113.968 104.517L115.006 110.445L99.9541 137.745L86.0847 110.445L87.1233 104.517L81.0217 84.6576L43.7986 92.9053C43.7986 92.9053 27.0442 98.2501 20.9931 115.3C14.9419 132.35 9.09985 180.576 9.09985 180.576L11.4006 178.299C18.1687 171.616 26.2815 166.445 35.2014 163.129L36.2184 162.755L36.002 244.612H167.267L166.157 184.17L190.722 174.158Z" fill="#FFF7F4"/>
<path d="M86.1139 110.445L99.9833 137.745L115.035 110.445L113.997 104.516L120.351 83.8576L119.197 83.6055H85.8182L81.0508 84.6571L87.1524 104.516L86.1139 110.445Z" fill="#FFB13B"/>
<path d="M86.0995 31.4542C94.6606 30.7339 102.875 27.8022 108.27 21.1104C109.432 25.2594 111.155 27.4348 115.367 29.2644C119.183 30.914 125.147 32.3546 129.222 31.0292C130.91 34.5372 132.987 36.3524 137.25 36.7918C138.642 31.6847 139.413 23.1057 132.706 15.1821C132.706 15.1821 129.857 11.8687 121.166 9.25388H121.065L121.166 8.93694C115.302 -4.48986 103.741 4.75187 103.741 4.75187C88.9916 -4.66273 85.3061 9.2827 85.3061 9.2827C76.5936 11.8975 73.7663 15.2109 73.7663 15.2109C71.4165 17.9175 69.7475 21.1452 68.8979 24.6256C71.7829 29.9559 80.1493 32.0449 86.1499 31.519L86.0995 31.4542Z" fill="#232426"/>
<path d="M116.903 51.7676L118.908 83.541C113.218 87.1426 104.433 92.9052 104.433 92.9052L101.49 109.379L98.5478 92.9052C98.5478 92.9052 90.3329 87.4811 84.6423 83.8723L85.8252 83.613L88.1187 51.7748L116.903 51.7676Z" fill="#F77172"/>
<path d="M146.763 89.708C146.335 90.1882 145.902 90.6684 145.464 91.1486C144.924 90.4283 144.354 89.708 143.755 89.0381L146.763 89.708Z" fill="#F77172"/>
<path d="M116.903 51.7607H88.1187L87.5562 59.5906C87.5562 59.5906 91.6888 75.1136 118.649 79.2698L116.903 51.7607Z" fill="#030303"/>
<path d="M184.021 115.293C177.97 98.2357 161.209 92.9054 161.209 92.9054L128.695 85.7021V244.605H168.652L166.149 184.163L199.038 169.756C199.038 169.756 190.065 132.357 184.014 115.3L184.021 115.293Z" fill="#FFF7F4"/>
<path d="M160.221 189.522L163.661 143.277" stroke="#030303" stroke-width="0.553315" stroke-linecap="round" stroke-linejoin="round"/>
<path d="M84.5341 49.2393C85.544 49.2393 86.5313 48.9402 87.371 48.3798C88.2108 47.8194 88.8653 47.023 89.2518 46.0911C89.6382 45.1592 89.7394 44.1338 89.5423 43.1445C89.3453 42.1552 88.859 41.2465 88.1448 40.5333C87.4307 39.82 86.5208 39.3343 85.5303 39.1375C84.5398 38.9408 83.513 39.0418 82.58 39.4278C81.6469 39.8138 80.8494 40.4674 80.2883 41.3061C79.7272 42.1448 79.4277 43.1308 79.4277 44.1394C79.4277 45.492 79.9657 46.7892 80.9234 47.7456C81.881 48.702 83.1798 49.2393 84.5341 49.2393Z" fill="#F77172"/>
<path d="M120.135 49.2393C121.145 49.2407 122.133 48.9428 122.973 48.3833C123.814 47.8238 124.47 47.0278 124.857 46.0961C125.245 45.1643 125.347 44.1387 125.151 43.1489C124.955 42.1592 124.469 41.2498 123.755 40.5358C123.041 39.8219 122.131 39.3354 121.141 39.1381C120.15 38.9407 119.123 39.0413 118.189 39.4271C117.256 39.8129 116.458 40.4665 115.896 41.3053C115.335 42.1442 115.035 43.1305 115.035 44.1394C115.035 45.4908 115.572 46.7868 116.528 47.743C117.485 48.6992 118.782 49.2374 120.135 49.2393Z" fill="#F77172"/>
<path d="M106.756 27.6445C102.565 37.6354 85.9263 39.3209 85.9263 39.3209V53.216C85.9263 62.2632 95.4899 68.6741 100.019 71.224C100.724 71.6203 101.519 71.8286 102.327 71.8286C103.136 71.8286 103.931 71.6203 104.635 71.224C109.157 68.6525 118.743 62.1479 118.743 53.2664V39.2489C109.554 38.7591 106.756 27.6517 106.756 27.6517V27.6445Z" fill="#F77172"/>
<path d="M51.2566 144.199C51.2566 144.199 50.6724 137.925 63.0055 131.306L66.7271 147.282L52.7567 148.846L51.2566 144.199Z" fill="#1E3B79"/>
<path d="M44.9311 97.7172C44.9311 97.7172 43.0127 93.0711 39.9835 93.244C38.2308 93.352 35.9301 96.0532 33.2976 98.2862C31.3935 99.9069 28.862 100.843 28.3571 102.522C27.131 106.534 35.6849 109.091 36.3845 114.148C36.4265 114.606 36.6415 115.03 36.9858 115.335C37.3302 115.64 37.7779 115.803 38.2381 115.79C39.9835 115.84 51.2203 107.715 44.9311 97.71V97.7172Z" fill="#F6B79C"/>
<path d="M64.4045 96.7873C64.4045 96.7873 55.555 90.3044 41.5918 97.6012C41.5918 97.6012 39.3776 98.5881 38.8006 103.299C38.3318 107.102 34.8771 119.917 29.951 123.987C29.951 123.987 26.5828 125.852 29.2298 131.428C31.8046 136.801 38.6852 138.516 50.1962 134.914L56.6873 132.94C56.6873 132.94 58.6635 161.912 57.6177 165.146H69.5181C69.5181 165.146 76.6223 176.75 79.8751 185.12C83.1279 193.49 98.0286 213.825 115.129 220.798L163.654 193.483L152.835 173.264C152.835 173.264 134.552 143.968 108.84 133.747C86.0344 124.685 79.1683 117.59 72.8863 110.041C72.8863 110.041 72.1651 102.723 64.3901 96.7945L64.4045 96.7873Z" fill="#FBDCCF"/>
<path d="M72.9005 110.034C72.9005 110.034 72.1793 102.716 64.4044 96.7873C64.4044 96.7873 55.5548 90.3044 41.5916 97.6012C41.5916 97.6012 39.3774 98.5881 38.8004 103.299C38.2075 106.813 37.2776 110.263 36.0237 113.6C37.2544 114.042 38.5749 114.177 39.8698 113.992C41.1648 113.808 42.3948 113.309 43.4524 112.541C48.2198 109.098 48.9915 105.503 48.9915 105.503C48.9915 105.503 48.9194 116.841 62.183 117.972C68.2414 118.483 74.2565 111.676 72.8861 110.048L72.9005 110.034Z" fill="#F6B79C"/>
<path d="M46.8207 95.3906C45.0179 95.9778 43.2685 96.7176 41.5917 97.602C41.5917 97.602 39.3775 98.5889 38.8005 103.3" stroke="#030303" stroke-width="0.553315" stroke-linecap="round" stroke-linejoin="round"/>
<path d="M140.17 170.765C143.185 170.089 146.07 168.934 148.717 167.343C141.93 158.245 127.311 141.08 108.847 133.74C104.974 132.199 101.563 130.722 98.5334 129.281C98.7065 134.057 99.4711 139.56 102.861 142.831C104.989 144.869 106.236 146.166 107.556 149.025C108.876 151.885 110.059 154.954 111.335 157.907C115.663 167.905 129.936 172.875 140.185 170.757L140.17 170.765Z" fill="#F6B79C"/>
<path d="M123.625 176.952C123.625 176.952 106.994 179.531 102.507 191.359C98.0213 203.186 105.58 214.683 105.58 214.683" stroke="#030303" stroke-width="0.553315" stroke-linecap="round" stroke-linejoin="round"/>
<path d="M76.9324 93.3158C76.1068 93.0846 75.3051 92.7759 74.5379 92.3937C72.8574 91.5438 69.7272 89.9663 68.53 89.3036C66.8351 88.3743 61.8152 88.3743 61.0219 92.3865C60.2285 96.3987 64.8516 111.036 69.8066 112.354C74.7615 113.672 88.8905 106.591 89.9363 101.895C90.9821 97.1983 86.8494 95.7432 84.5775 95.275C82.9259 94.9293 78.9591 93.8344 76.9252 93.2941L76.9324 93.3158Z" fill="#F6B79C"/>
<path d="M61.3176 96.8379C62.4716 102.716 66.0345 111.367 69.7994 112.375C71.6313 112.872 74.7254 112.21 77.9494 110.935" stroke="#030303" stroke-width="0.553315" stroke-linecap="round" stroke-linejoin="round"/>
<path d="M35.5334 222.599C66.7342 219.682 95.9371 179.286 95.9371 179.286L36.536 199.405L35.5334 222.599Z" fill="#030303"/>
<path d="M9.09999 180.576C9.09999 180.576 5.40725 211.377 22.3708 213.473C39.3343 215.569 69.1502 201.847 92.1866 181.628L120.113 164.109C120.113 164.109 126.604 170.7 135.706 168.727L137.451 168.258V179.416C137.451 179.416 137.105 184.415 140.711 185.114L145.039 166.638L152.843 173.257C152.843 173.257 153.564 166.947 152.843 165.161C152.121 163.375 147.794 159.543 146.763 152.462C146.753 151.302 146.328 150.184 145.564 149.309C144.801 148.435 143.75 147.862 142.601 147.693C139.053 146.93 133.059 146.159 127.347 142.651C126.12 141.909 124.727 141.486 123.294 141.421C121.862 141.356 120.436 141.65 119.146 142.276C110.975 146.217 93.1097 154.407 75.223 159.759C57.3364 165.111 33.1893 151.252 9.09999 180.576Z" fill="#F77172"/>
<path d="M146.77 152.462C146.758 151.301 146.332 150.183 145.567 149.309C144.803 148.434 143.751 147.861 142.601 147.693C139.053 146.93 133.059 146.159 127.347 142.651C126.12 141.909 124.727 141.486 123.294 141.421C121.862 141.356 120.436 141.65 119.146 142.276C107.488 147.915 95.5179 152.886 83.2937 157.165C83.4235 161.898 84.7794 170.441 91.0831 182.586L92.2154 181.613L120.142 164.095C120.142 164.095 126.633 170.686 135.735 168.712L137.48 168.244V179.402C137.48 179.402 137.134 184.401 140.74 185.1L145.068 166.623L152.871 173.243C152.871 173.243 153.593 166.933 152.871 165.147C152.15 163.36 147.823 159.528 146.791 152.447L146.77 152.462Z" fill="#F77172"/>
<path d="M75.223 159.779C61.3752 163.921 43.7842 156.516 25.2268 168.157" stroke="#030303" stroke-width="0.553315" stroke-linecap="round" stroke-linejoin="round"/>
<path d="M73.7082 151.251V176.203L61.6635 187.663C61.6635 187.663 55.7277 190.789 56.4273 196.487C57.1269 202.185 55.9081 207.587 53.29 210.029C50.6719 212.471 52.5687 218.673 63.4955 213.667C63.4955 213.667 67.7652 211.247 68.6451 206.363L69.6909 198L90.4625 187.67C92.4009 186.453 93.9959 184.761 95.0965 182.756C96.1971 180.75 96.7669 178.497 96.7517 176.21C96.9248 168.013 96.7517 147.268 96.7517 147.268L73.7082 151.251Z" fill="#FBDCCF"/>
<path d="M39.6806 161.826C39.6806 161.826 39.6806 157.259 47.5132 156.784C57.0119 156.186 59.3848 166.868 57.8629 176.182C57.8629 176.182 57.8629 181.138 52.2229 181.412C46.0058 181.714 44.8302 175.483 44.8302 174.208C44.8302 172.933 43.8709 162.431 42.2265 161.387L39.6733 161.84L39.6806 161.826Z" fill="#FBDCCF"/>
<path d="M56.7234 132.933C56.7234 132.933 66.727 128.921 70.9173 118.174C70.9173 118.174 68.7536 135.339 57.1489 139.783L56.7234 132.933Z" fill="#030303"/>
<path d="M73.7085 176.225C73.7085 176.225 78.0359 173.517 82.4355 175.44" stroke="#030303" stroke-width="0.553315" stroke-linecap="round" stroke-linejoin="round"/>
<path d="M59.2693 215.209C59.2693 215.209 61.4907 210.563 61.7503 208.294" stroke="#030303" stroke-width="0.553315" stroke-linecap="round" stroke-linejoin="round"/>
<path d="M53.384 214.705C53.384 214.705 56.8676 210.296 57.4734 208.294" stroke="#030303" stroke-width="0.553315" stroke-linecap="round" stroke-linejoin="round"/>
<path d="M48.9988 173.344V180.85" stroke="#030303" stroke-width="0.553315" stroke-linecap="round" stroke-linejoin="round"/>
<path d="M54.4226 172.911V180.993" stroke="#030303" stroke-width="0.553315" stroke-linecap="round" stroke-linejoin="round"/>
<path d="M73.7085 162.453V151.252" stroke="#030303" stroke-width="0.553315" stroke-linecap="round" stroke-linejoin="round"/>
<path d="M189.957 217.521C178.612 225.034 120.459 235.839 120.459 235.839C120.459 235.839 104.224 240.377 98.4685 235.839C97.6619 232.379 95.6883 229.302 92.8789 227.123C88.1692 223.464 84.8515 221.022 84.6785 217.888C84.5054 214.755 91.4869 215.821 95.3239 211.016C95.3239 211.016 91.7177 207.876 94.206 205.556C96.6943 203.237 98.6416 208.301 106.323 209.878C106.323 209.878 113.477 209.122 116.968 215.598C116.968 215.598 133.203 212.313 145.594 202.027C157.985 191.741 166.128 184.177 166.128 184.177L166.813 183.81L194.335 169.094C194.334 169.111 194.334 169.127 194.335 169.144C194.339 169.192 194.339 169.24 194.335 169.288C194.508 170.398 195.417 176.153 195.965 183.378C196.167 185.985 196.319 188.78 196.377 191.618C196.651 202.466 195.468 213.919 189.957 217.521Z" fill="#F77172"/>
<path d="M196.442 191.589C189.763 184.328 174.913 181.504 164.455 185.826L194.393 169.064C194.392 169.081 194.392 169.098 194.393 169.115C194.397 169.163 194.397 169.211 194.393 169.259C194.566 170.368 195.475 176.124 196.023 183.348C196.232 185.978 196.384 188.772 196.442 191.589Z" fill="#030303"/>
<path d="M153.506 228.916C151.039 218.63 145.479 209.907 141.764 204.93C130.116 212.932 116.997 215.59 116.997 215.59C113.506 209.108 106.352 209.864 106.352 209.864C98.6704 208.294 96.7519 203.244 94.2348 205.542C91.7177 207.84 95.3527 211.002 95.3527 211.002C91.5157 215.814 84.5342 214.733 84.7073 217.874C84.8804 221.014 88.1981 223.449 92.9077 227.108C95.7184 229.286 97.6923 232.364 98.4973 235.824C104.267 240.355 120.488 235.824 120.488 235.824C120.488 235.824 136.593 232.842 153.506 228.916Z" fill="#F77172"/>
<path d="M51.2563 144.2C51.2563 144.2 63.8203 144.085 72.3165 136.759C77.4136 132.368 81.2119 126.669 83.3009 120.278L82.0315 119.284C82.0315 119.284 83.9573 117.339 85.2338 118.153C86.5104 118.967 91.1985 120.941 91.5158 123.383C91.8332 125.825 87.5634 152.549 56.2617 152.916C56.2617 152.916 53.8167 152.765 53.4705 151.274C53.1244 149.783 51.2563 144.2 51.2563 144.2Z" fill="#9EC4FA"/>
<path d="M145.039 166.637L145.969 159.779" stroke="#030303" stroke-width="0.553315" stroke-linecap="round" stroke-linejoin="round"/>
<path d="M160.221 189.522C160.221 189.522 169.705 179.552 182.046 186.64" stroke="#030303" stroke-width="0.553315" stroke-linecap="round" stroke-linejoin="round"/>
<path d="M95.353 211.037L98.5409 214.732" stroke="#030303" stroke-width="0.553315" stroke-linecap="round" stroke-linejoin="round"/>
<path d="M38.8367 126.624C38.8367 127.567 37.5745 129.022 36.0311 129.022C34.4876 129.022 33.2183 127.582 33.2183 126.624C33.2183 125.666 34.4804 124.924 36.0311 124.924C37.5817 124.924 38.8367 125.68 38.8367 126.624Z" fill="#030303"/>
<path d="M32.468 133.243L36.0742 131.342L42.5653 133.38" stroke="#030303" stroke-width="0.553315" stroke-linecap="round" stroke-linejoin="round"/>
<path d="M36.031 131.305V128.021" stroke="#030303" stroke-width="0.553315" stroke-linecap="round" stroke-linejoin="round"/>
<path d="M42.5655 110.445C42.511 110.704 42.3843 110.941 42.2002 111.131C42.0161 111.32 41.782 111.453 41.5251 111.516C41.2681 111.578 40.9989 111.566 40.7485 111.481C40.498 111.397 40.2767 111.243 40.1101 111.038C39.9435 110.833 39.8384 110.585 39.807 110.323C39.7756 110.061 39.8192 109.795 39.9328 109.557C40.0463 109.319 40.2251 109.117 40.4485 108.976C40.6719 108.835 40.9308 108.76 41.1951 108.76C41.5984 108.807 41.9674 109.01 42.2233 109.324C42.4793 109.639 42.6021 110.041 42.5655 110.445Z" fill="#030303"/>
<path d="M55.252 110.445C55.1975 110.704 55.0708 110.941 54.8867 111.131C54.7026 111.32 54.4685 111.453 54.2116 111.516C53.9547 111.578 53.6854 111.566 53.435 111.481C53.1846 111.397 52.9632 111.243 52.7966 111.038C52.63 110.833 52.5249 110.585 52.4935 110.323C52.4622 110.061 52.5058 109.795 52.6193 109.557C52.7328 109.319 52.9116 109.117 53.135 108.976C53.3585 108.835 53.6173 108.76 53.8816 108.76C54.2849 108.807 54.6539 109.01 54.9098 109.324C55.1658 109.639 55.2886 110.041 55.252 110.445Z" fill="#030303"/>
<path d="M94.92 48.3525C95.2523 48.4208 95.5976 48.3849 95.9087 48.2495C96.2197 48.1142 96.4812 47.8861 96.6573 47.5965C96.8334 47.3068 96.9155 46.9699 96.8924 46.6319C96.8692 46.2938 96.742 45.9712 96.528 45.7083C96.3141 45.4453 96.024 45.2548 95.6974 45.163C95.3708 45.0712 95.0238 45.0825 94.7039 45.1954C94.3841 45.3083 94.107 45.5172 93.9106 45.7935C93.7143 46.0699 93.6084 46.4001 93.6074 46.7389C93.5709 47.126 93.688 47.5119 93.9335 47.8137C94.179 48.1154 94.5332 48.3089 94.92 48.3525Z" fill="#030303"/>
<path d="M109.41 48.3525C109.742 48.4208 110.087 48.3849 110.398 48.2495C110.709 48.1142 110.971 47.8861 111.147 47.5965C111.323 47.3068 111.405 46.9699 111.382 46.6319C111.359 46.2938 111.232 45.9712 111.018 45.7083C110.804 45.4453 110.514 45.2548 110.187 45.163C109.861 45.0712 109.514 45.0825 109.194 45.1954C108.874 45.3083 108.597 45.5172 108.4 45.7935C108.204 46.0699 108.098 46.4001 108.097 46.7389C108.061 47.126 108.178 47.5119 108.423 47.8137C108.669 48.1154 109.023 48.3089 109.41 48.3525Z" fill="#030303"/>
<path d="M99.9832 53.4248C100.71 54.0181 101.619 54.3423 102.558 54.3423C103.497 54.3423 104.406 54.0181 105.133 53.4248" stroke="#030303" stroke-width="0.370149" stroke-linecap="round" stroke-linejoin="round"/>
<path d="M92.0498 41.0789C92.7597 40.4993 93.6155 40.1255 94.5236 39.9985C95.4318 39.8715 96.3574 39.9961 97.1994 40.3586" stroke="#030303" stroke-width="0.740297" stroke-linecap="round" stroke-linejoin="round"/>
<path d="M111.804 41.0414C111.091 40.4648 110.234 40.093 109.326 39.9661C108.417 39.8392 107.491 39.9619 106.647 40.3211" stroke="#030303" stroke-width="0.740297" stroke-linecap="round" stroke-linejoin="round"/>
<path d="M102.558 59.5533C102.558 59.5533 105.659 60.4681 107.527 58.5088" stroke="#030303" stroke-width="0.370149" stroke-linecap="round" stroke-linejoin="round"/>
<path d="M100.574 79.3046L99.9829 79.3406V79.2686L100.574 79.3046Z" fill="#911321"/>
<path d="M101.166 79.2686V79.3406L100.575 79.3046L101.166 79.2686Z" fill="#911321"/>
<path d="M104.361 108.687L107.527 100.67L112.302 111.043" stroke="#030303" stroke-width="0.553315" stroke-linecap="round" stroke-linejoin="round"/>
<path d="M98.5334 108.759L95.3528 100.67L89.2583 112.13" stroke="#030303" stroke-width="0.553315" stroke-linecap="round" stroke-linejoin="round"/>
<path d="M163.373 186.187C163.373 186.187 196.059 172.356 204.346 185.121L195.215 154.046C195.215 154.046 170.318 165.398 163.373 186.187Z" fill="#FFF7F4"/>
<path d="M107.924 129.663L119.161 112.13L133.636 115.79L127.253 87.7188" stroke="#030303" stroke-width="0.553315" stroke-linecap="round" stroke-linejoin="round"/>
<path d="M138.829 118.297C138.829 118.297 143.221 142.608 154.054 139.525" stroke="#030303" stroke-width="0.553315" stroke-linecap="round" stroke-linejoin="round"/>
<path d="M154.473 140.13L156.391 140.073C156.523 140.056 156.65 140.01 156.761 139.937C156.873 139.865 156.967 139.769 157.036 139.655C157.105 139.542 157.148 139.414 157.162 139.282C157.175 139.15 157.158 139.016 157.113 138.892L156.918 138.099C156.9 137.966 156.853 137.839 156.779 137.727C156.706 137.615 156.608 137.521 156.493 137.451C156.378 137.382 156.249 137.34 156.115 137.327C155.981 137.315 155.847 137.332 155.721 137.379L154.004 138.229C153.819 138.339 153.676 138.508 153.598 138.71C153.521 138.911 153.514 139.132 153.579 139.338C153.617 139.551 153.726 139.745 153.888 139.889C154.051 140.033 154.256 140.118 154.473 140.13Z" fill="#3870C2"/>
<path d="M157.509 140.155L157.678 140.075C158.268 139.794 158.519 139.09 158.238 138.501L157.421 136.783C157.14 136.194 156.435 135.943 155.845 136.224L155.675 136.304C155.085 136.584 154.834 137.289 155.115 137.878L155.933 139.595C156.213 140.185 156.919 140.435 157.509 140.155Z" fill="#3870C2"/>
<path d="M155.237 116.236C155.237 116.236 159.255 140.612 148.025 141.325" stroke="#030303" stroke-width="0.553315" stroke-linecap="round" stroke-linejoin="round"/>
<path d="M147.816 142.038L145.998 142.629C145.868 142.657 145.733 142.655 145.604 142.624C145.474 142.593 145.353 142.534 145.249 142.451C145.145 142.367 145.062 142.261 145.004 142.141C144.947 142.021 144.917 141.89 144.916 141.757L144.837 140.943C144.811 140.812 144.815 140.677 144.848 140.548C144.881 140.419 144.943 140.299 145.029 140.197C145.115 140.094 145.222 140.013 145.344 139.957C145.465 139.902 145.598 139.875 145.731 139.877L147.628 140.108C147.841 140.148 148.033 140.259 148.175 140.422C148.316 140.586 148.398 140.792 148.407 141.008C148.439 141.221 148.398 141.439 148.29 141.626C148.183 141.812 148.016 141.958 147.816 142.038Z" fill="#3870C2"/>
<path d="M145.396 138.832L145.21 138.813C144.56 138.746 143.979 139.219 143.912 139.868L143.718 141.759C143.651 142.408 144.124 142.988 144.774 143.055L144.96 143.074C145.61 143.141 146.191 142.669 146.258 142.02L146.452 140.128C146.519 139.479 146.046 138.899 145.396 138.832Z" fill="#3870C2"/>
<path d="M136.766 108.881C136.763 108.859 136.763 108.838 136.766 108.816C136.759 108.727 136.759 108.638 136.766 108.55V108.427L136.831 108.218C136.831 108.218 136.831 108.218 136.831 108.168L142.846 94.1431C141.829 90.6856 138.44 89.317 138.266 89.2449C137.885 89.0761 137.584 88.768 137.423 88.3839C137.263 87.9998 137.255 87.5689 137.403 87.1797C137.551 86.7905 137.842 86.4726 138.218 86.2914C138.593 86.1101 139.023 86.0793 139.42 86.2052C139.644 86.2916 144.736 88.2797 146.07 93.6173L154.386 107.556C154.458 107.683 154.514 107.818 154.552 107.959L156.629 116.79C156.697 117.2 156.606 117.62 156.374 117.964C156.143 118.309 155.788 118.552 155.382 118.644C154.977 118.736 154.552 118.67 154.194 118.459C153.835 118.249 153.571 117.909 153.456 117.51L151.523 109.306C150.326 108.586 146.402 106.922 139.983 109.752L140.344 117.899C140.354 118.112 140.322 118.326 140.25 118.526C140.178 118.727 140.066 118.912 139.922 119.069C139.778 119.226 139.604 119.354 139.41 119.443C139.216 119.533 139.006 119.584 138.793 119.592H138.721C138.301 119.591 137.898 119.429 137.595 119.139C137.292 118.85 137.111 118.455 137.091 118.036L136.68 108.816L136.766 108.881ZM149.244 105.171L144.866 97.824L141.433 105.812C143.948 104.982 146.624 104.755 149.244 105.15V105.171Z" fill="#3870C2"/>
</g>
<defs>
<clipPath id="clip0_356_13157">
<rect width="205" height="212" rx="12" fill="white"/>
</clipPath>
</defs>
</svg>
