<svg width="930" height="437" viewBox="0 0 930 437" fill="none" xmlns="http://www.w3.org/2000/svg">
<mask id="mask0_356_13080" style="mask-type:alpha" maskUnits="userSpaceOnUse" x="0" y="0" width="930" height="437">
<rect x="0.462891" width="928.937" height="437" fill="#D9D9D9"/>
</mask>
<g mask="url(#mask0_356_13080)">
<g clip-path="url(#clip0_356_13080)">
<path d="M355.319 265.584C355.319 265.584 355.532 308.035 282.203 309.097V253.71C282.203 253.71 335.38 236.38 355.319 265.584Z" fill="#3870C2"/>
<path d="M324.118 233.483C320.834 230.05 296.512 273.787 288.221 291.317C287.56 292.74 287.06 338.763 288.134 349.838C314.354 361.237 337.115 370.701 346.817 395.635C357.979 368.179 339.625 249.715 324.118 233.483Z" fill="#FFB2A2"/>
<path d="M4.20874 318.761C4.20874 318.761 8.22914 343.944 54.1516 346.354V289.557C54.1516 289.557 5.45731 292.778 4.20874 318.761Z" fill="#3870C2"/>
<path d="M133.511 137.468L136.557 100.211L188.523 96.7896L192.556 132.436L271.927 144.735C271.927 144.735 294.889 145.983 305.164 170.118C315.44 194.253 323.294 213.631 323.294 213.631C323.294 213.631 351.699 246.868 355.32 265.596C355.32 265.596 311.807 254.11 287.634 294.601C287.634 294.601 297.623 390.116 295.126 435.44L57.8973 438.436V304.277C57.8973 304.277 17.506 301.256 4.20874 318.773C6.5765 296.93 12.5995 275.641 22.0259 255.795C24.9045 238.229 26.8259 220.519 27.7818 202.743C28.3187 190.782 34.3867 179.57 42.2153 172.178C50.6931 164.187 62.1924 159.618 73.3172 156.159L133.511 137.431V137.468Z" fill="#1D232C"/>
<path d="M90.5225 150.815C94.6178 158.469 113.971 187.024 173.378 183.191C212.695 180.693 230.562 158.219 238.678 139.565" stroke="#FFF7F4" stroke-width="0.97" stroke-miterlimit="10"/>
<path d="M273.426 443.031C268.028 442.968 262.691 441.888 257.694 439.847C240.963 433.242 229.551 422.217 220.399 413.352C205.116 398.569 199.048 393.887 183.678 402.39C181.645 403.506 179.252 403.768 177.025 403.12C174.798 402.471 172.92 400.964 171.804 398.931C170.688 396.898 170.426 394.505 171.075 392.278C171.723 390.051 173.23 388.173 175.263 387.057C202.732 371.875 218.588 387.22 232.585 400.792C241.462 409.382 250.652 418.272 264.149 423.591C271.503 426.487 277.459 426.225 282.877 422.766C296.175 414.276 302.193 389.055 302.517 384.186C302.534 381.868 303.471 379.651 305.121 378.024C306.772 376.396 309.002 375.491 311.32 375.508C313.638 375.525 315.854 376.461 317.482 378.112C319.109 379.763 320.014 381.992 319.997 384.31C319.997 388.393 314.341 422.504 293.228 436.875C287.412 440.904 280.501 443.052 273.426 443.031Z" fill="#F2B864"/>
<path d="M245.333 364.895C245.333 364.895 234.458 391.327 238.703 402.352C242.948 413.377 228.065 432.068 221.223 452.045C214.381 472.022 213.419 480.088 224.344 480.088C235.269 480.088 250.989 440.134 259.916 431.219C268.843 422.304 268.294 419.22 268.294 412.091C268.294 404.962 274 392.963 274 392.963L245.333 364.895Z" fill="#F2B864"/>
<path d="M226.242 368.866C226.242 368.866 228.265 405.074 223.495 422.492C218.726 439.909 214.056 456.49 229.139 450.76C244.222 445.029 253.149 402.34 253.149 402.34L246.556 368.866H226.242Z" fill="#F2B864"/>
<path d="M246.556 209.061C214.855 177.36 204.892 183.54 204.892 183.54L162.852 211.109C158.727 220.919 154.02 230.476 148.756 239.726C149.726 241.962 150.985 244.061 152.502 245.969C159.592 255.614 165.463 266.098 169.982 277.183C170.369 277.183 170.743 277.183 171.093 277.183C184.49 277.183 202.719 331.009 202.719 331.009C202.719 331.009 275.498 439.897 308.498 357.229C330.098 303.116 304.752 280.704 282.278 253.697C275.786 246.031 251.613 214.13 246.556 209.061Z" fill="#F2B864"/>
<path d="M115.806 418.684C139.129 407.309 167.559 382.837 177.448 361.25H57.9973V426.512C57.9973 426.512 88.9619 431.781 115.806 418.684Z" fill="#030303"/>
<path d="M174.626 174.937C204.704 173.002 219.275 155.797 226.242 137.655L192.531 132.424L188.498 96.7769L136.557 100.198L133.511 137.455L101.472 147.444C108.389 158.681 127.343 177.996 174.626 174.912V174.937Z" fill="#FFB2A2"/>
<path d="M188.523 96.7769L136.557 100.198L134.297 128.765C134.297 128.765 180.37 131.312 188.523 96.7769Z" fill="#030303"/>
<path d="M138.068 80.2086C138.497 78.405 138.38 76.5149 137.734 74.7775C137.087 73.0401 135.94 71.5338 134.436 70.4492C132.933 69.3646 131.141 68.7506 129.289 68.6851C127.436 68.6195 125.606 69.1052 124.03 70.0808C122.453 71.0564 121.202 72.4778 120.434 74.1651C119.666 75.8524 119.417 77.7296 119.717 79.559C120.017 81.3883 120.853 83.0874 122.119 84.4411C123.386 85.7948 125.026 86.7421 126.831 87.1631C129.243 87.7256 131.78 87.3096 133.886 86.0062C135.992 84.7028 137.495 82.6182 138.068 80.2086Z" fill="#FFB2A1"/>
<path d="M200.909 84.5782C202.2 83.2532 203.068 81.5753 203.405 79.7565C203.742 77.9378 203.533 76.0599 202.802 74.3604C202.072 72.661 200.854 71.2162 199.303 70.2089C197.751 69.2016 195.936 68.677 194.087 68.7015C192.237 68.726 190.436 69.2983 188.912 70.3463C187.388 71.3942 186.209 72.8707 185.523 74.5889C184.838 76.307 184.678 78.1898 185.063 79.999C185.448 81.8082 186.361 83.4626 187.686 84.753C189.463 86.4829 191.854 87.4362 194.334 87.4035C196.813 87.3707 199.178 86.3544 200.909 84.5782Z" fill="#FFB2A1"/>
<path d="M134.722 80.6205C134.722 80.6205 120.326 77.6738 116.58 56.3108C113.222 36.8456 130.439 33.2746 130.439 33.2746C130.439 33.2746 134.722 8.3157 159.881 8.74022C185.039 9.16473 205.391 24.4847 204.829 46.2848C204.192 74.0155 187.124 80.6205 187.124 80.6205H134.684H134.722Z" fill="#2B2C30"/>
<path d="M117.504 60.4809C122.211 78.0608 134.722 80.6204 134.722 80.6204H187.162C187.162 80.6204 204.23 74.0155 204.867 46.2847C204.975 42.0508 204.247 37.8372 202.726 33.8846C201.205 29.932 198.92 26.3178 196.002 23.2485C192.955 53.9759 132.812 34.9601 132.812 34.9601C132.812 34.9601 133.673 40.5038 140.74 44.9487L132.662 58.3709C127.68 65.7 122.061 63.6773 117.504 60.4809Z" fill="#26282C"/>
<path d="M160.742 49.1689C153.85 49.2912 147.019 47.8483 140.765 44.9487C137.856 47.7443 135.542 51.0984 133.961 54.8101C132.379 58.5218 131.564 62.5146 131.563 66.549V94.6918C131.482 98.6925 132.199 102.669 133.674 106.389C135.148 110.109 137.35 113.497 140.151 116.355C142.951 119.213 146.294 121.484 149.983 123.034C153.672 124.584 157.633 125.383 161.635 125.383C165.636 125.383 169.598 124.584 173.287 123.034C176.976 121.484 180.318 119.213 183.119 116.355C185.919 113.497 188.122 110.109 189.596 106.389C191.071 102.669 191.788 98.6925 191.707 94.6918V66.549C191.709 58.7795 188.687 51.3142 183.279 45.7353C176.662 46.2223 171.892 49.1939 160.805 49.1689H160.742Z" fill="#FFB2A2"/>
<path d="M166.273 99.2991C166.032 100.46 165.368 101.491 164.41 102.19C163.452 102.889 162.269 103.207 161.089 103.083C159.91 102.958 158.819 102.4 158.028 101.516C157.237 100.632 156.802 99.4863 156.809 98.3003L166.273 99.2991Z" fill="#030303"/>
<path d="M169.02 92.5443L165.025 92.1572C163.96 92.6076 162.799 92.7852 161.648 92.674C160.497 92.5629 159.392 92.1664 158.432 91.5205L156.385 91.3332C155.278 91.2248 154.161 91.336 153.098 91.6605C152.035 91.985 151.046 92.5164 150.189 93.2241C149.331 93.9318 148.622 94.8019 148.102 95.7844C147.582 96.767 147.261 97.8426 147.158 98.9495L162.016 99.1493L176.636 101.759C176.743 100.653 176.631 99.5377 176.305 98.4758C175.98 97.414 175.448 96.4268 174.741 95.5707C174.033 94.7147 173.164 94.0068 172.182 93.4874C171.2 92.9681 170.126 92.6476 169.02 92.5443Z" fill="#26282C"/>
<path d="M157.858 91.146C159.116 92.1744 160.691 92.7363 162.315 92.7363C163.94 92.7363 165.515 92.1744 166.773 91.146" stroke="#030303" stroke-width="0.97" stroke-linecap="round" stroke-linejoin="round"/>
<path d="M22.1632 307.76C22.1632 307.76 18.7171 352.409 45.2992 408.408C45.2992 408.408 96.8777 428.56 144.011 397.171C169.811 379.949 192.218 358.122 210.111 332.782C212.984 328.628 216.812 325.224 221.273 322.856L250.939 307.036C251.776 306.582 252.46 305.891 252.904 305.049C253.349 304.206 253.534 303.251 253.436 302.304L252.537 293.289L256.533 287.434C257.087 286.625 257.384 285.667 257.384 284.687C257.384 283.706 257.087 282.749 256.533 281.94L245.295 265.833C245.295 265.833 246.544 254.908 242.136 250.376L240.314 239.501C240.314 239.501 234.583 240.25 231.711 249.627C228.839 259.004 223.558 274.873 211.472 276.371C204.144 277.251 196.715 276.678 189.609 274.686C189.712 280.211 187.707 285.568 184.003 289.669C177.823 296.473 177.51 307.049 177.51 307.049C177.51 307.049 159.831 320.046 137.157 324.279C121.45 327.213 99.9991 334.093 99.9991 334.093L96.6654 309.121C58.2968 296.423 22.1632 307.785 22.1632 307.785V307.76Z" fill="#FFB2A2"/>
<path d="M96.6655 309.096C58.2969 296.411 22.1632 307.76 22.1632 307.76C21.885 313.664 22.0102 319.579 22.5378 325.465C46.398 306.262 96.6655 309.096 96.6655 309.096Z" fill="#030303"/>
<path d="M99.9993 334.018C99.9993 334.018 90.6225 336.29 77.937 349.875" stroke="#030303" stroke-width="1.45" stroke-linecap="round" stroke-linejoin="round"/>
<path d="M96.6654 309.097L87.4509 248.066" stroke="#030303" stroke-width="1.45" stroke-linecap="round" stroke-linejoin="round"/>
<path d="M224.394 289.157C224.394 289.157 238.129 282.714 238.491 276.671C238.853 270.628 242.236 250.326 242.236 250.326" stroke="#030303" stroke-width="1.45" stroke-linecap="round" stroke-linejoin="round"/>
<path d="M245.333 265.784C245.333 265.784 248.567 282.914 244.521 287.546C241.678 290.741 238.651 293.767 235.457 296.611" stroke="#030303" stroke-width="1.45" stroke-linecap="round" stroke-linejoin="round"/>
<path d="M252.587 293.227L245.333 302.242" stroke="#030303" stroke-width="1.45" stroke-linecap="round" stroke-linejoin="round"/>
<path d="M238.278 338.363C238.678 328.287 229.813 322.232 229.813 322.232C225.381 318.611 220.961 309.146 220.961 309.146L177.448 361.324C188.685 374.222 213.657 374.222 213.657 374.222C257.357 404.837 323.244 435.464 344.994 399.193C345.652 398.071 346.228 396.903 346.717 395.697C332.645 335.779 238.278 338.363 238.278 338.363Z" fill="#FFB2A2"/>
<path d="M176.711 371.125C189.154 359.528 200.348 346.66 210.111 332.732C212.976 328.555 216.805 325.129 221.273 322.743" stroke="#030303" stroke-width="1.45" stroke-linecap="round" stroke-linejoin="round"/>
<path d="M149.105 82.3185C149.681 82.437 150.279 82.3747 150.817 82.1401C151.355 81.9055 151.808 81.5101 152.113 81.0081C152.418 80.5061 152.56 79.9221 152.52 79.3362C152.48 78.7502 152.26 78.191 151.889 77.7352C151.519 77.2794 151.017 76.9493 150.451 76.7901C149.886 76.631 149.285 76.6506 148.731 76.8462C148.178 77.0419 147.698 77.404 147.358 77.883C147.018 78.362 146.835 78.9344 146.833 79.5217C146.77 80.1927 146.973 80.8616 147.398 81.3846C147.823 81.9076 148.436 82.243 149.105 82.3185Z" fill="#030303"/>
<path d="M174.164 82.3185C174.74 82.437 175.337 82.3747 175.876 82.1401C176.414 81.9055 176.867 81.5101 177.172 81.0081C177.477 80.5061 177.619 79.9221 177.579 79.3362C177.539 78.7502 177.318 78.191 176.948 77.7352C176.578 77.2794 176.075 76.9493 175.51 76.7901C174.945 76.631 174.344 76.6506 173.79 76.8462C173.236 77.0419 172.757 77.404 172.417 77.883C172.077 78.362 171.894 78.9344 171.892 79.5217C171.829 80.1927 172.032 80.8616 172.456 81.3846C172.881 81.9076 173.495 82.243 174.164 82.3185Z" fill="#030303"/>
<path d="M142.201 71.169C143.017 69.8078 144.189 68.6946 145.59 67.9489C146.991 67.2032 148.569 66.8531 150.154 66.9363" stroke="#030303" stroke-width="1.94" stroke-linecap="round" stroke-linejoin="round"/>
<path d="M180.257 71.169C179.441 69.8078 178.269 68.6946 176.868 67.9489C175.467 67.2032 173.889 66.8531 172.304 66.9363" stroke="#030303" stroke-width="1.94" stroke-linecap="round" stroke-linejoin="round"/>
<path d="M5.13257 302.155C5.13257 302.155 33.4127 276.372 90.5224 293.227" stroke="#FFF7F4" stroke-width="0.97" stroke-miterlimit="10"/>
<path d="M299.059 258.192C299.059 258.192 315.078 245.344 349.189 250.326" stroke="#FFF7F4" stroke-width="0.97" stroke-miterlimit="10"/>
<path d="M157.321 222.146C157.321 222.146 165.424 237.815 174.589 236.804C183.753 235.793 207.951 207.925 202.419 193.104C196.888 178.284 157.321 222.146 157.321 222.146Z" fill="#030303"/>
<path d="M268.344 297.734C268.344 299.432 254.485 320.783 257.432 339.224" stroke="#030303" stroke-width="1.45" stroke-linecap="round" stroke-linejoin="round"/>
<path d="M227.316 319.634C227.316 319.634 250.964 308.472 252.187 306.075C253.411 303.678 253.111 301.48 253.111 298.583" stroke="#030303" stroke-width="1.45" stroke-linecap="round" stroke-linejoin="round"/>
<path d="M233.284 325.378C233.284 325.378 239.177 328.225 238.278 338.326C238.278 338.326 289.707 341.946 314.828 355.543" stroke="#030303" stroke-width="1.45" stroke-linecap="round" stroke-linejoin="round"/>
<path d="M252.587 437.624C243.322 433.02 234.803 427.048 227.316 419.907" stroke="#030303" stroke-width="1.45" stroke-linecap="round" stroke-linejoin="round"/>
<path d="M229.139 397.521C230.3 398.607 231.424 399.706 232.548 400.792C240.838 408.808 249.403 417.086 261.502 422.492" stroke="#030303" stroke-width="1.45" stroke-linecap="round" stroke-linejoin="round"/>
<path d="M232.31 427.574C229.426 433.43 226.142 439.722 223.458 446.227" stroke="#030303" stroke-width="1.45" stroke-linecap="round" stroke-linejoin="round"/>
<path d="M238.154 390.129C237.537 393.623 237.537 397.198 238.154 400.692" stroke="#030303" stroke-width="1.45" stroke-linecap="round" stroke-linejoin="round"/>
<path d="M208.887 233.595C204.929 232.347 189.21 245.32 186.126 265.784C183.042 286.248 186.126 322.806 186.126 322.806C186.126 322.806 189.871 364.471 198.986 367.867C208.101 371.263 218.576 365.744 218.576 354.694C218.576 343.645 213.969 339.612 213.969 339.612L211.347 303.041L220 272.214C220 272.214 246.657 245.107 208.887 233.595Z" fill="#F2B864"/>
<path d="M202.407 236.455C196.276 241.287 188.236 251.762 186.176 265.784" stroke="#030303" stroke-width="1.45" stroke-linecap="round" stroke-linejoin="round"/>
<path d="M198.574 159.231C198.574 159.231 214.269 123.996 218.664 128.378C223.059 132.761 225.181 149.417 222.309 155.934C219.438 162.452 224.132 171.067 206.078 174.975C188.024 178.883 198.574 159.231 198.574 159.231Z" fill="#E0A24F"/>
<path d="M158.408 157.058C158.408 157.058 156.272 118.54 150.616 121.112C144.96 123.684 137.032 138.454 137.394 145.571C137.756 152.688 130.302 159.056 145.735 169.119C161.167 179.183 158.408 157.058 158.408 157.058Z" fill="#E0A24F"/>
<path d="M209.561 175.287C209.561 175.537 209.561 175.799 209.561 176.049C209.638 180.097 209.103 184.134 207.976 188.023C207.776 188.784 207.551 189.571 207.301 190.345C204.73 198.088 200.812 205.316 195.727 211.696C194.001 213.881 192.15 215.966 190.183 217.939L188.935 219.112C187.411 220.581 185.811 221.969 184.14 223.27C174.289 230.886 166.873 230.362 157.296 227.89C151.727 226.441 148.169 218.625 146.059 210.647C145.248 207.559 144.61 204.429 144.149 201.27C143.612 198.255 143.386 195.192 143.474 192.131C144.286 187.261 145.709 184.814 145.335 179.895C145.335 179.208 144.898 175.3 144.898 174.601C144.898 157.895 158.844 145.022 176.874 145.022C194.903 145.022 209.561 158.569 209.561 175.287Z" fill="#F2B864"/>
<path d="M187.112 183.765C189.043 183.765 190.608 182.032 190.608 179.895C190.608 177.757 189.043 176.024 187.112 176.024C185.181 176.024 183.616 177.757 183.616 179.895C183.616 182.032 185.181 183.765 187.112 183.765Z" fill="#030303"/>
<path opacity="0.1" d="M195.702 211.696C193.976 213.881 192.125 215.966 190.159 217.939L188.91 219.112C187.386 220.581 185.786 221.969 184.116 223.27C174.264 230.886 166.848 230.362 157.271 227.89C151.703 226.441 148.144 218.625 146.034 210.647C145.223 207.559 144.585 204.429 144.124 201.27C150.202 195.617 158.223 192.519 166.523 192.618C180.108 192.618 191.682 200.608 195.702 211.696Z" fill="white"/>
<path d="M155.998 182.329C157.818 182.329 159.294 180.596 159.294 178.458C159.294 176.321 157.818 174.588 155.998 174.588C154.177 174.588 152.701 176.321 152.701 178.458C152.701 180.596 154.177 182.329 155.998 182.329Z" fill="#030303"/>
<path d="M203.056 157.17C203.056 157.17 207.689 161.515 209.299 171.704" stroke="#030303" stroke-width="1.19" stroke-linecap="round" stroke-linejoin="round"/>
<path d="M147.258 163.201C149.323 158.993 152.022 155.128 155.261 151.739" stroke="#030303" stroke-width="1.19" stroke-linecap="round" stroke-linejoin="round"/>
<path d="M174.664 207.975C174.502 210.722 170.581 214.755 166.061 214.48C161.541 214.205 158.133 209.735 158.295 206.988C158.457 204.242 162.253 202.244 166.773 202.506C171.293 202.768 174.826 205.228 174.664 207.975Z" fill="#030303"/>
<path d="M154.275 215.104C155.757 216.422 157.624 217.229 159.6 217.406C161.575 217.584 163.556 217.123 165.25 216.09C167.338 217.579 169.818 218.422 172.381 218.515C174.945 218.608 177.479 217.948 179.671 216.615" stroke="#030303" stroke-width="1.19" stroke-linecap="round" stroke-linejoin="round"/>
<path d="M163.477 212.944V215.603" stroke="#030303" stroke-width="1.29" stroke-linecap="round" stroke-linejoin="round"/>
<path d="M184.752 297.735C184.752 297.735 185.576 357.079 196.576 365.982C207.576 374.884 216.553 363.584 218.114 358.553C219.675 353.521 213.969 339.612 213.969 339.612L211.347 303.041L219.999 272.214" stroke="#030303" stroke-width="1.45" stroke-linecap="round" stroke-linejoin="round"/>
<path d="M196.576 351.448C196.576 351.448 195.652 363.26 198.986 366.593" stroke="#030303" stroke-width="1.45" stroke-linecap="round" stroke-linejoin="round"/>
<path d="M208.051 349.875C208.051 349.875 206.303 362.935 209.961 366.593" stroke="#030303" stroke-width="1.45" stroke-linecap="round" stroke-linejoin="round"/>
<path d="M152.851 236.455L148.756 239.726C148.756 239.726 140.103 274.536 137.332 289.531C134.56 304.527 134.572 316.101 138.181 327.088C141.789 338.076 148.594 354.956 155.661 358.215C162.727 361.474 170.256 361.187 173.428 349.85C176.599 338.513 169.794 331.933 166.398 328.524C163.002 325.116 159.594 305.576 159.594 305.576L171.293 276.247L152.851 236.455Z" fill="#F2B864"/>
<path d="M158.482 254.796L169.245 272.263" stroke="#030303" stroke-width="1.45" stroke-linecap="round" stroke-linejoin="round"/>
<path d="M138.181 327.126C141.802 338.126 148.594 354.994 155.661 358.253C162.728 361.511 170.256 361.224 173.428 349.887C176.599 338.55 169.794 331.97 166.398 328.562C164.987 327.151 163.564 322.93 162.403 318.498" stroke="#030303" stroke-width="1.45" stroke-linecap="round" stroke-linejoin="round"/>
<path d="M153.7 346.354C153.7 346.354 155.373 354.832 160.505 357.242" stroke="#030303" stroke-width="1.45" stroke-linecap="round" stroke-linejoin="round"/>
<path d="M163.864 341.946C163.864 341.946 162.84 346.791 170.107 351.798" stroke="#030303" stroke-width="1.45" stroke-linecap="round" stroke-linejoin="round"/>
<path d="M240.189 240.575C240.189 240.575 236.106 237.791 233.247 245.782C230.388 253.772 226.205 263.861 226.205 263.861L222.909 268.743" stroke="#030303" stroke-width="1.45" stroke-linecap="round" stroke-linejoin="round"/>
<path d="M305.576 283.214C305.576 283.214 329.374 302.642 313.58 341.897" stroke="#030303" stroke-width="1.45" stroke-linecap="round" stroke-linejoin="round"/>
</g>
<path d="M642.616 333.369C642.616 333.369 647.735 364.409 572.171 350.075C496.608 335.742 612.95 312.206 612.95 312.206C612.95 312.206 635.599 312.219 642.616 333.369Z" fill="#3870C2"/>
<path d="M357.554 362.636C312.681 376.895 292.629 356.718 291.443 341.86C291.271 339.996 291.444 338.117 291.954 336.316C296.212 321.908 315.965 251.276 315.965 251.276C315.965 251.276 366.182 302.992 372.238 336.653C374.398 348.677 370.939 358.341 357.554 362.636Z" fill="#FFF7F4"/>
<path d="M357.554 362.636C326.815 372.4 307.711 366.007 298.347 356.243C295.658 353.419 294.07 349.724 293.873 345.829C293.676 341.935 294.883 338.098 297.273 335.017C301.132 330.023 305.764 323.705 307.886 321.683C323.493 306.8 345.955 287.172 383.075 294.102C385.235 306.125 370.939 358.341 357.554 362.636Z" fill="#3870C2"/>
<path d="M537.149 107.965C537.149 107.965 542.081 87.9875 523.515 84.092C523.515 84.092 536.562 59.9197 518.583 38.7689C518.583 38.7689 513.651 33.0254 498.606 28.4931H498.431L498.606 27.9437C488.455 4.67037 468.44 20.6895 468.44 20.6895C442.907 4.37071 436.527 28.5431 436.527 28.5431C421.444 33.0754 416.55 38.8188 416.55 38.8188C398.57 59.9696 411.555 84.1419 411.555 84.1419C392.977 88.025 397.908 107.965 397.908 107.965C397.908 107.965 368.617 117.029 372.388 142.413C376.158 167.796 400.231 173.552 400.231 173.552H534.852C534.852 173.552 558.924 167.809 562.695 142.425C566.466 117.042 537.149 107.965 537.149 107.965Z" fill="#1E1F21"/>
<path d="M619.03 314.391C619.03 314.391 617.906 241.974 607.431 212.358C596.955 182.742 567.951 173.552 567.951 173.552L497.207 157.883L486.157 193.679L487.955 203.955L461.897 251.276L437.887 203.955L439.685 193.679L429.122 159.256L364.684 173.552C364.684 173.552 335.679 182.817 325.204 212.37C314.728 241.924 304.615 325.516 304.615 325.516L308.598 321.571C320.314 309.986 334.359 301.023 349.801 295.276L351.561 294.626L351.186 436.514H578.426L576.504 331.746L619.03 314.391Z" fill="#FFF7F4"/>
<path d="M437.937 203.955L461.947 251.276L488.005 203.955L486.207 193.679L497.207 157.87L495.209 157.433H437.425L429.172 159.256L439.735 193.679L437.937 203.955Z" fill="#FFB13B"/>
<path d="M437.912 67.0361C452.733 65.7875 466.954 60.7058 476.294 49.1066C478.304 56.2984 481.288 60.0691 488.579 63.2404C495.184 66.0997 505.51 68.5968 512.565 66.2994C515.486 72.38 519.082 75.5264 526.461 76.288C528.871 67.4356 530.207 52.5651 518.595 38.8309C518.595 38.8309 513.663 33.0874 498.618 28.5551H498.443L498.618 28.0058C488.467 4.73238 468.453 20.7516 468.453 20.7516C442.919 4.43272 436.539 28.6051 436.539 28.6051C421.456 33.1374 416.562 38.8808 416.562 38.8808C412.494 43.5723 409.605 49.1669 408.134 55.1996C413.128 64.4391 427.612 68.0599 438 67.1485L437.912 67.0361Z" fill="#232426"/>
<path d="M491.239 102.247L494.71 157.321C484.859 163.564 469.651 173.553 469.651 173.553L464.557 202.107L459.463 173.553C459.463 173.553 445.242 164.151 435.39 157.895L437.438 157.446L441.409 102.259L491.239 102.247Z" fill="#F77172"/>
<path d="M542.93 168.008C542.189 168.841 541.44 169.673 540.682 170.505C539.746 169.257 538.759 168.008 537.723 166.847L542.93 168.008Z" fill="#F77172"/>
<path d="M491.239 102.233H441.408L440.435 115.805C440.435 115.805 447.589 142.712 494.26 149.916L491.239 102.233Z" fill="#030303"/>
<path d="M607.431 212.358C596.955 182.792 567.939 173.553 567.939 173.553L511.653 161.067V436.502H580.824L576.491 331.734L633.426 306.763C633.426 306.763 617.894 241.937 607.418 212.371L607.431 212.358Z" fill="#FFF7F4"/>
<path d="M566.228 341.023L572.184 260.865" stroke="#030303" stroke-width="1.45" stroke-linecap="round" stroke-linejoin="round"/>
<path d="M572.184 386.208C572.184 386.208 574.207 409.469 574.606 424.802C575.006 440.134 579.838 453.432 610.465 460.286C610.465 460.286 618.119 461.897 616.109 467.94C614.098 473.983 569.812 470.712 559.299 447.601C548.786 424.49 546.326 386.208 546.326 386.208H572.184Z" fill="#FBDCCF"/>
<path d="M579.051 393.301L516.123 413.553L550.084 415.676C550.084 415.676 553.83 411.78 562.957 412.092C572.084 412.404 574.194 417.186 574.194 417.186L579.938 417.549L579.051 393.301Z" fill="#030303"/>
<path d="M435.203 97.8643C436.951 97.8643 438.66 97.3459 440.114 96.3746C441.568 95.4032 442.701 94.0226 443.37 92.4073C444.039 90.7921 444.214 89.0147 443.873 87.2999C443.532 85.5851 442.69 84.01 441.454 82.7737C440.217 81.5374 438.642 80.6955 436.928 80.3544C435.213 80.0133 433.435 80.1884 431.82 80.8575C430.205 81.5265 428.824 82.6596 427.853 84.1133C426.881 85.567 426.363 87.2761 426.363 89.0245C426.363 91.3689 427.294 93.6174 428.952 95.2752C430.61 96.933 432.858 97.8643 435.203 97.8643Z" fill="#F77172"/>
<path d="M496.833 97.8643C498.581 97.8668 500.292 97.3505 501.747 96.3806C503.202 95.4108 504.337 94.031 505.008 92.416C505.679 90.8009 505.856 89.0231 505.517 87.3075C505.177 85.5919 504.336 84.0157 503.1 82.7781C501.864 81.5406 500.289 80.6974 498.574 80.3553C496.859 80.0132 495.081 80.1876 493.465 80.8563C491.849 81.525 490.468 82.658 489.496 84.112C488.524 85.566 488.005 87.2756 488.005 89.0245C488.005 91.3668 488.935 93.6133 490.59 95.2708C492.245 96.9282 494.49 97.861 496.833 97.8643Z" fill="#F77172"/>
<path d="M473.672 60.4316C466.417 77.7493 437.613 80.671 437.613 80.671V104.756C437.613 120.438 454.169 131.55 462.01 135.97C463.229 136.657 464.606 137.018 466.005 137.018C467.405 137.018 468.781 136.657 470.001 135.97C477.829 131.513 494.423 120.238 494.423 104.843V80.5461C478.516 79.6971 473.672 60.4441 473.672 60.4441V60.4316Z" fill="#F77172"/>
<path d="M377.594 262.463C377.594 262.463 376.583 251.588 397.933 240.114L404.376 267.807L380.191 270.516L377.594 262.463Z" fill="#1E3B79"/>
<path d="M519.506 405.3C519.506 405.3 534.914 427.35 530.981 439.436C527.048 451.522 517.996 447.901 505.597 443.069C493.199 438.237 477.804 434.604 450.91 437.925C450.91 437.925 433.43 442.67 427.337 436.514C421.244 430.359 419.483 421.306 427.337 421.306C435.19 421.306 476.855 419.196 476.855 419.196L519.506 405.3Z" fill="#FBDCCF"/>
<path d="M366.644 181.893C366.644 181.893 363.323 173.839 358.079 174.139C355.045 174.326 351.062 179.008 346.504 182.879C343.208 185.688 338.826 187.311 337.952 190.221C335.829 197.175 350.637 201.608 351.848 210.373C351.921 211.166 352.293 211.902 352.889 212.431C353.485 212.96 354.261 213.242 355.057 213.219C358.079 213.307 377.531 199.223 366.644 181.88V181.893Z" fill="#F6B79C"/>
<path d="M400.355 180.282C400.355 180.282 385.036 169.045 360.863 181.693C360.863 181.693 357.03 183.404 356.031 191.569C355.22 198.162 349.239 220.374 340.711 227.428C340.711 227.428 334.88 230.662 339.463 240.326C343.92 249.64 355.831 252.612 375.759 246.369L386.996 242.948C386.996 242.948 390.417 293.166 388.606 298.772H409.208C409.208 298.772 421.506 318.886 427.137 333.395C432.768 347.903 458.564 383.15 488.168 395.236L572.171 347.89L553.443 312.843C553.443 312.843 521.792 262.064 477.28 244.346C437.8 228.639 425.914 216.341 415.039 203.256C415.039 203.256 413.79 190.57 400.331 180.295L400.355 180.282Z" fill="#FBDCCF"/>
<path d="M415.064 203.243C415.064 203.243 413.815 190.558 400.355 180.282C400.355 180.282 385.035 169.045 360.863 181.693C360.863 181.693 357.03 183.404 356.031 191.569C355.005 197.661 353.395 203.64 351.224 209.424C353.355 210.191 355.641 210.425 357.882 210.105C360.124 209.785 362.253 208.921 364.084 207.588C372.337 201.62 373.673 195.39 373.673 195.39C373.673 195.39 373.549 215.042 396.51 217.003C406.998 217.889 417.411 206.09 415.039 203.268L415.064 203.243Z" fill="#F6B79C"/>
<path d="M369.915 177.86C366.794 178.878 363.766 180.16 360.863 181.693C360.863 181.693 357.03 183.404 356.031 191.569" stroke="#030303" stroke-width="1.45" stroke-linecap="round" stroke-linejoin="round"/>
<path d="M531.518 308.51C536.736 307.34 541.731 305.337 546.313 302.579C534.564 286.81 509.256 257.057 477.292 244.334C470.587 241.662 464.682 239.102 459.438 236.605C459.737 244.883 461.061 254.422 466.929 260.091C470.612 263.624 472.772 265.872 475.057 270.828C477.342 275.785 479.39 281.104 481.6 286.223C489.091 303.553 513.801 312.169 531.543 308.498L531.518 308.51Z" fill="#F6B79C"/>
<path d="M502.876 319.236C502.876 319.236 474.084 323.706 466.317 344.207C458.551 364.709 471.636 384.636 471.636 384.636" stroke="#030303" stroke-width="1.45" stroke-linecap="round" stroke-linejoin="round"/>
<path d="M422.043 174.264C420.614 173.863 419.226 173.328 417.898 172.666C414.989 171.192 409.57 168.458 407.497 167.309C404.563 165.699 395.873 165.699 394.499 172.653C393.126 179.608 401.129 204.979 409.707 207.263C418.285 209.548 442.744 197.275 444.555 189.134C446.365 180.994 439.211 178.471 435.278 177.66C432.419 177.061 425.551 175.163 422.031 174.226L422.043 174.264Z" fill="#F6B79C"/>
<path d="M395.011 180.37C397.009 190.558 403.177 205.553 409.695 207.301C412.866 208.163 418.222 207.014 423.804 204.804" stroke="#030303" stroke-width="1.45" stroke-linecap="round" stroke-linejoin="round"/>
<path d="M350.375 398.357C404.388 393.301 454.943 323.281 454.943 323.281L352.111 358.153L350.375 398.357Z" fill="#030303"/>
<path d="M304.615 325.516C304.615 325.516 298.222 378.905 327.589 382.538C356.955 386.171 408.571 362.386 448.45 327.338L496.795 296.973C496.795 296.973 508.032 308.398 523.789 304.977L526.811 304.165V323.505C526.811 323.505 526.211 332.17 532.454 333.382L539.946 301.356L553.455 312.83C553.455 312.83 554.704 301.893 553.455 298.796C552.207 295.7 544.715 289.057 542.93 276.784C542.912 274.773 542.177 272.835 540.856 271.319C539.534 269.804 537.715 268.81 535.726 268.518C529.583 267.195 519.207 265.859 509.318 259.778C507.195 258.493 504.783 257.76 502.303 257.646C499.823 257.533 497.354 258.043 495.122 259.129C480.976 265.959 450.049 280.155 419.084 289.432C388.119 298.709 346.317 274.686 304.615 325.516Z" fill="#F77172"/>
<path d="M542.942 276.784C542.922 274.772 542.184 272.834 540.86 271.318C539.537 269.803 537.716 268.81 535.726 268.518C529.583 267.195 519.207 265.859 509.318 259.778C507.195 258.493 504.783 257.76 502.303 257.646C499.823 257.533 497.354 258.043 495.122 259.129C474.94 268.903 454.218 277.519 433.056 284.937C433.28 293.14 435.628 307.948 446.54 328.999L448.5 327.314L496.845 296.948C496.845 296.948 508.082 308.373 523.839 304.952L526.861 304.14V323.48C526.861 323.48 526.262 332.146 532.504 333.357L539.996 301.331L553.505 312.805C553.505 312.805 554.754 301.868 553.505 298.771C552.257 295.675 544.765 289.032 542.98 276.759L542.942 276.784Z" fill="#F77172"/>
<path d="M419.084 289.469C395.112 296.649 364.659 283.813 332.533 303.99" stroke="#030303" stroke-width="1.45" stroke-linecap="round" stroke-linejoin="round"/>
<path d="M416.462 274.687V317.937L395.611 337.802C395.611 337.802 385.335 343.221 386.547 353.097C387.758 362.973 385.648 372.338 381.115 376.57C376.583 380.803 379.867 391.553 398.783 382.876C398.783 382.876 406.174 378.68 407.697 370.215L409.508 355.719L445.467 337.815C448.822 335.704 451.583 332.772 453.489 329.295C455.394 325.819 456.38 321.914 456.354 317.95C456.654 303.741 456.354 267.782 456.354 267.782L416.462 274.687Z" fill="#FBDCCF"/>
<path d="M357.554 293.015C357.554 293.015 357.554 285.1 371.114 284.275C387.558 283.239 391.665 301.756 389.031 317.9C389.031 317.9 389.031 326.49 379.267 326.964C368.504 327.489 366.469 316.688 366.469 314.478C366.469 312.268 364.809 294.064 361.962 292.254L357.542 293.04L357.554 293.015Z" fill="#FBDCCF"/>
<path d="M387.058 242.935C387.058 242.935 404.376 235.981 411.63 217.352C411.63 217.352 407.884 247.106 387.795 254.809L387.058 242.935Z" fill="#030303"/>
<path d="M416.462 317.974C416.462 317.974 423.953 313.28 431.57 316.613" stroke="#030303" stroke-width="1.45" stroke-linecap="round" stroke-linejoin="round"/>
<path d="M391.466 385.547C391.466 385.547 395.311 377.494 395.761 373.561" stroke="#030303" stroke-width="1.45" stroke-linecap="round" stroke-linejoin="round"/>
<path d="M381.277 384.673C381.277 384.673 387.308 377.032 388.357 373.561" stroke="#030303" stroke-width="1.45" stroke-linecap="round" stroke-linejoin="round"/>
<path d="M373.686 312.98V325.991" stroke="#030303" stroke-width="1.45" stroke-linecap="round" stroke-linejoin="round"/>
<path d="M383.075 312.231V326.24" stroke="#030303" stroke-width="1.45" stroke-linecap="round" stroke-linejoin="round"/>
<path d="M416.462 294.102V274.687" stroke="#030303" stroke-width="1.45" stroke-linecap="round" stroke-linejoin="round"/>
<path d="M617.706 389.555C598.066 402.577 497.394 421.306 497.394 421.306C497.394 421.306 469.289 429.172 459.325 421.306C457.929 415.309 454.512 409.975 449.649 406.198C441.496 399.855 435.752 395.623 435.452 390.192C435.153 384.76 447.239 386.608 453.881 378.28C453.881 378.28 447.639 372.836 451.946 368.816C456.254 364.796 459.625 373.573 472.922 376.307C472.922 376.307 485.308 374.996 491.351 386.221C491.351 386.221 519.456 380.528 540.907 362.698C562.357 344.868 576.454 331.758 576.454 331.758L577.64 331.122L625.285 305.613C625.283 305.642 625.283 305.672 625.285 305.701C625.291 305.784 625.291 305.867 625.285 305.95C625.585 307.873 627.158 317.849 628.107 330.372C628.457 334.892 628.719 339.737 628.819 344.656C629.293 363.46 627.246 383.312 617.706 389.555Z" fill="#F77172"/>
<path d="M628.931 344.606C617.37 332.021 591.661 327.126 573.557 334.618L625.385 305.563C625.383 305.593 625.383 305.622 625.385 305.651C625.392 305.734 625.392 305.817 625.385 305.901C625.685 307.823 627.258 317.799 628.207 330.323C628.569 334.88 628.832 339.724 628.931 344.606Z" fill="#030303"/>
<path d="M554.604 409.307C550.334 391.478 540.707 376.358 534.277 367.73C514.113 381.602 491.401 386.209 491.401 386.209C485.358 374.972 472.972 376.283 472.972 376.283C459.675 373.561 456.354 364.808 451.996 368.791C447.639 372.774 453.932 378.255 453.932 378.255C447.289 386.596 435.203 384.723 435.503 390.167C435.802 395.611 441.546 399.831 449.699 406.174C454.565 409.948 457.982 415.283 459.375 421.281C469.364 429.135 497.444 421.281 497.444 421.281C497.444 421.281 525.325 416.112 554.604 409.307Z" fill="#F77172"/>
<path d="M377.594 262.463C377.594 262.463 399.344 262.263 414.052 249.565C422.876 241.954 429.451 232.075 433.068 220.998L430.87 219.275C430.87 219.275 434.204 215.903 436.414 217.314C438.624 218.725 446.74 222.146 447.289 226.379C447.838 230.612 440.447 276.934 386.259 277.57C386.259 277.57 382.026 277.308 381.427 274.724C380.828 272.139 377.594 262.463 377.594 262.463Z" fill="#9EC4FA"/>
<path d="M539.946 301.356L541.556 289.469" stroke="#030303" stroke-width="1.45" stroke-linecap="round" stroke-linejoin="round"/>
<path d="M566.228 341.024C566.228 341.024 582.647 323.743 604.01 336.029" stroke="#030303" stroke-width="1.45" stroke-linecap="round" stroke-linejoin="round"/>
<path d="M440.035 426.45C440.035 426.45 432.543 429.459 433.055 439.236" stroke="#030303" stroke-width="1.45" stroke-linecap="round" stroke-linejoin="round"/>
<path d="M431.57 424.803C429.721 425.294 428.058 426.318 426.788 427.748C425.518 429.178 424.697 430.95 424.428 432.844" stroke="#030303" stroke-width="1.45" stroke-linecap="round" stroke-linejoin="round"/>
<path d="M453.932 378.318L459.45 384.723" stroke="#030303" stroke-width="1.45" stroke-linecap="round" stroke-linejoin="round"/>
<path d="M356.094 231.998C356.094 233.634 353.909 236.156 351.237 236.156C348.565 236.156 346.367 233.658 346.367 231.998C346.367 230.337 348.552 229.051 351.237 229.051C353.921 229.051 356.094 230.362 356.094 231.998Z" fill="#030303"/>
<path d="M345.069 243.472L351.311 240.176L362.549 243.709" stroke="#030303" stroke-width="1.45" stroke-linecap="round" stroke-linejoin="round"/>
<path d="M351.237 240.114V234.42" stroke="#030303" stroke-width="1.45" stroke-linecap="round" stroke-linejoin="round"/>
<path d="M362.549 203.954C362.454 204.402 362.235 204.814 361.916 205.142C361.598 205.471 361.192 205.702 360.748 205.809C360.303 205.917 359.837 205.896 359.403 205.75C358.97 205.603 358.587 205.337 358.298 204.982C358.01 204.627 357.828 204.197 357.773 203.743C357.719 203.288 357.795 202.828 357.991 202.415C358.188 202.001 358.497 201.652 358.884 201.408C359.271 201.163 359.719 201.033 360.176 201.033C360.875 201.114 361.513 201.466 361.956 202.011C362.4 202.557 362.612 203.254 362.549 203.954Z" fill="#030303"/>
<path d="M384.511 203.954C384.417 204.402 384.198 204.814 383.879 205.142C383.56 205.471 383.155 205.702 382.71 205.809C382.265 205.917 381.799 205.896 381.366 205.75C380.932 205.603 380.549 205.337 380.261 204.982C379.972 204.627 379.79 204.197 379.736 203.743C379.682 203.288 379.757 202.828 379.954 202.415C380.15 202.001 380.46 201.652 380.846 201.408C381.233 201.163 381.681 201.033 382.139 201.033C382.837 201.114 383.476 201.466 383.919 202.011C384.362 202.557 384.575 203.254 384.511 203.954Z" fill="#030303"/>
<path d="M453.182 96.3283C453.757 96.4468 454.355 96.3845 454.894 96.1499C455.432 95.9153 455.885 95.5199 456.19 95.0179C456.494 94.5159 456.637 93.9319 456.597 93.346C456.557 92.76 456.336 92.2008 455.966 91.745C455.596 91.2891 455.093 90.959 454.528 90.7999C453.963 90.6407 453.362 90.6603 452.808 90.856C452.254 91.0517 451.775 91.4138 451.435 91.8928C451.095 92.3718 450.912 92.9442 450.91 93.5315C450.847 94.2024 451.049 94.8714 451.474 95.3944C451.899 95.9174 452.513 96.2528 453.182 96.3283Z" fill="#030303"/>
<path d="M478.266 96.3283C478.841 96.4468 479.439 96.3845 479.978 96.1499C480.516 95.9153 480.969 95.5199 481.274 95.0179C481.578 94.5159 481.721 93.9319 481.681 93.346C481.641 92.76 481.42 92.2008 481.05 91.745C480.68 91.2891 480.177 90.959 479.612 90.7999C479.047 90.6407 478.446 90.6603 477.892 90.856C477.338 91.0517 476.859 91.4138 476.519 91.8928C476.179 92.3718 475.996 92.9442 475.994 93.5315C475.931 94.2024 476.133 94.8714 476.558 95.3944C476.983 95.9174 477.596 96.2528 478.266 96.3283Z" fill="#030303"/>
<path d="M461.947 105.118C463.205 106.147 464.78 106.708 466.405 106.708C468.029 106.708 469.604 106.147 470.862 105.118" stroke="#030303" stroke-width="0.97" stroke-linecap="round" stroke-linejoin="round"/>
<path d="M448.213 83.7173C449.442 82.7125 450.923 82.0647 452.495 81.8445C454.068 81.6243 455.67 81.8402 457.128 82.4687" stroke="#030303" stroke-width="1.94" stroke-linecap="round" stroke-linejoin="round"/>
<path d="M482.412 83.6553C481.177 82.6557 479.694 82.0113 478.121 81.7913C476.549 81.5713 474.945 81.7841 473.484 82.4067" stroke="#030303" stroke-width="1.94" stroke-linecap="round" stroke-linejoin="round"/>
<path d="M466.405 115.744C466.405 115.744 471.774 117.329 475.007 113.933" stroke="#030303" stroke-width="0.97" stroke-linecap="round" stroke-linejoin="round"/>
<path d="M462.971 149.979L461.947 150.041V149.917L462.971 149.979Z" fill="#911321"/>
<path d="M463.995 149.917V150.041L462.971 149.979L463.995 149.917Z" fill="#911321"/>
<path d="M469.526 200.908L475.007 187.011L483.273 204.991" stroke="#030303" stroke-width="1.45" stroke-linecap="round" stroke-linejoin="round"/>
<path d="M459.438 201.033L453.932 187.011L443.381 206.876" stroke="#030303" stroke-width="1.45" stroke-linecap="round" stroke-linejoin="round"/>
<path d="M571.685 335.242C571.685 335.242 628.27 311.269 642.616 333.394L626.809 279.531C626.809 279.531 583.708 299.208 571.685 335.242Z" fill="#FFF7F4"/>
<path d="M475.694 237.266L495.147 206.876L520.206 213.219L509.156 164.562" stroke="#030303" stroke-width="1.45" stroke-linecap="round" stroke-linejoin="round"/>
<path d="M529.196 217.564C529.196 217.564 536.799 259.704 555.553 254.36" stroke="#030303" stroke-width="1.45" stroke-linecap="round" stroke-linejoin="round"/>
<path d="M556.277 255.408L559.598 255.309C559.827 255.279 560.046 255.199 560.239 255.074C560.432 254.949 560.595 254.781 560.715 254.585C560.835 254.388 560.909 254.167 560.932 253.938C560.954 253.709 560.926 253.477 560.847 253.261L560.51 251.887C560.479 251.657 560.397 251.436 560.27 251.242C560.142 251.048 559.973 250.884 559.774 250.765C559.575 250.645 559.351 250.571 559.12 250.549C558.888 250.528 558.655 250.558 558.437 250.639L555.466 252.112C555.144 252.303 554.897 252.597 554.763 252.946C554.63 253.295 554.617 253.678 554.729 254.035C554.795 254.404 554.984 254.741 555.265 254.99C555.546 255.239 555.902 255.386 556.277 255.408Z" fill="#3870C2"/>
<path d="M561.533 255.454L561.826 255.314C562.847 254.829 563.282 253.607 562.796 252.586L561.381 249.609C560.895 248.588 559.673 248.153 558.652 248.639L558.359 248.778C557.338 249.264 556.903 250.486 557.389 251.507L558.804 254.484C559.29 255.505 560.512 255.939 561.533 255.454Z" fill="#3870C2"/>
<path d="M557.601 213.994C557.601 213.994 564.555 256.245 545.115 257.481" stroke="#030303" stroke-width="1.45" stroke-linecap="round" stroke-linejoin="round"/>
<path d="M544.753 258.718L541.606 259.741C541.381 259.79 541.147 259.787 540.923 259.734C540.699 259.68 540.489 259.578 540.309 259.433C540.13 259.288 539.985 259.105 539.885 258.897C539.786 258.689 539.734 258.461 539.733 258.231L539.596 256.82C539.551 256.593 539.558 256.359 539.615 256.135C539.673 255.911 539.78 255.703 539.928 255.526C540.077 255.348 540.263 255.207 540.473 255.111C540.684 255.015 540.913 254.968 541.144 254.972L544.428 255.371C544.796 255.442 545.129 255.634 545.374 255.917C545.619 256.2 545.76 256.558 545.776 256.932C545.831 257.302 545.76 257.679 545.574 258.003C545.389 258.327 545.099 258.579 544.753 258.718Z" fill="#3870C2"/>
<path d="M540.564 253.159L540.241 253.126C539.116 253.011 538.111 253.829 537.995 254.954L537.659 258.233C537.543 259.358 538.362 260.364 539.487 260.479L539.81 260.512C540.935 260.628 541.94 259.809 542.056 258.684L542.392 255.405C542.508 254.28 541.689 253.275 540.564 253.159Z" fill="#3870C2"/>
<path d="M525.624 201.245C525.618 201.208 525.618 201.17 525.624 201.133C525.612 200.979 525.612 200.825 525.624 200.671V200.459L525.737 200.097C525.737 200.097 525.737 200.097 525.737 200.009L536.15 175.7C534.389 169.706 528.521 167.334 528.221 167.209C527.562 166.917 527.04 166.383 526.762 165.717C526.484 165.051 526.471 164.304 526.727 163.63C526.983 162.955 527.487 162.404 528.137 162.09C528.786 161.776 529.531 161.722 530.219 161.94C530.606 162.09 539.421 165.536 541.731 174.788L556.127 198.948C556.251 199.168 556.348 199.403 556.414 199.647L560.01 214.955C560.128 215.665 559.97 216.393 559.569 216.99C559.168 217.588 558.554 218.009 557.852 218.169C557.15 218.329 556.414 218.214 555.794 217.848C555.174 217.483 554.717 216.894 554.516 216.203L551.17 201.982C549.098 200.733 542.305 197.849 531.193 202.756L531.817 216.877C531.836 217.247 531.781 217.616 531.656 217.964C531.53 218.312 531.337 218.632 531.088 218.905C530.838 219.178 530.537 219.398 530.201 219.554C529.866 219.71 529.502 219.797 529.133 219.812H529.008C528.282 219.809 527.584 219.528 527.059 219.026C526.534 218.524 526.221 217.84 526.186 217.115L525.475 201.133L525.624 201.245ZM547.225 194.815L539.646 182.08L533.703 195.926C538.057 194.487 542.69 194.093 547.225 194.778V194.815Z" fill="#3870C2"/>
<g clip-path="url(#clip1_356_13080)">
<path d="M706.483 269.293C706.483 269.293 666.52 291.001 654.837 321.625C643.154 352.25 687.687 343.161 687.687 343.161L706.483 269.293Z" fill="#151617"/>
<path d="M922.939 305.587C922.939 305.587 938.928 346.846 865.741 338.226L843.295 305.587C843.295 305.587 897.717 284.051 922.939 305.587Z" fill="#3167B5"/>
<path d="M571.2 309.21C571.2 309.21 557.333 341.911 617.012 341.911H652.061L654.837 285.082C654.837 285.082 584.115 282.349 571.2 309.194V309.21Z" fill="#3870C2"/>
<path d="M842.375 319.923L846.695 347.768L858.269 422.416L860.827 438.954H642.53C639.987 392.122 641.836 345.155 648.052 298.668C601.257 291.75 571.2 309.194 571.2 309.194C576.721 282.037 603.176 235.327 603.176 235.327L609.322 208.622C617.932 175.061 636.369 168.971 636.369 168.971L687.687 144.921L736.494 134.926L801.788 143.562C865.554 158.351 862.044 210.215 885.41 235.389C908.776 260.563 922.846 305.665 922.846 305.665C885.41 295.108 842.375 319.923 842.375 319.923Z" fill="#FFCF7E"/>
<path d="M858.269 422.416C841.345 421.432 833.624 398.632 833.624 398.632C818.697 379.095 779.997 382.921 780.387 379.173C782.259 358.606 829.803 350.126 846.742 347.768L858.269 422.416Z" fill="#030303"/>
<path d="M691.556 371.365L641.984 370.193C641.579 381.031 641.361 392.744 641.454 405.081C665.507 398.881 691.478 371.365 691.478 371.365H691.556Z" fill="#030303"/>
<path d="M673.477 151.87C673.477 151.87 642.281 230.657 711.833 226.175C769.203 222.474 768.657 167.175 770.826 139.252L736.51 134.879L687.687 144.874L673.477 151.87Z" fill="#F77172"/>
<path d="M699.713 141.517C699.713 141.517 657.91 152.917 632.392 121.215C632.392 121.215 616.7 96.8993 637.305 71.0379C640.44 68.4941 642.998 65.3106 644.808 61.6995C646.618 58.0885 647.639 54.1327 647.803 50.0957C647.803 50.0957 648.723 45.1764 642.265 39.9448C640.518 38.5724 639.168 36.758 638.355 34.689C637.542 32.6199 637.296 30.3711 637.641 28.1747C637.985 25.9783 638.91 23.9138 640.318 22.1944C641.726 20.475 643.566 19.1629 645.65 18.3936C656.101 13.7086 671.169 18.3936 671.169 18.3936C671.169 18.3936 692.429 -2.54854 716.092 7.93034C739.754 18.4092 736.666 36.8683 736.666 36.8683C736.666 36.8683 780.013 42.1624 781.9 83.8436C783.788 125.525 699.713 141.517 699.713 141.517Z" fill="#151617"/>
<path d="M744.512 164.63L692.772 175.717L679.171 93.1202L722.3 82.0322L744.512 164.63Z" fill="#F77172"/>
<path d="M718.478 83.0786L679.171 93.1827L685.722 132.99C716.622 121.558 718.478 83.0786 718.478 83.0786Z" fill="#030303"/>
<path d="M707.076 55.6395C683.678 62.7607 672.307 53.5 667.753 47.8311C665.443 51.2151 663.952 55.0918 663.401 59.1532L659.72 85.7018C658.89 93.4509 661.104 101.219 665.892 107.364C670.681 113.508 677.668 117.547 685.377 118.626C693.087 119.705 700.913 117.74 707.201 113.146C713.489 108.552 717.746 101.69 719.071 94.01L721.114 79.2208C709.104 71.1313 707.076 55.6551 707.076 55.6551V55.6395Z" fill="#F77172"/>
<path d="M725.045 85.8739C726.819 85.8707 728.553 85.3417 730.027 84.3535C731.502 83.3653 732.651 81.9621 733.33 80.3209C734.009 78.6796 734.187 76.8739 733.843 75.1313C733.498 73.3887 732.646 71.7873 731.393 70.529C730.141 69.2707 728.544 68.4118 726.805 68.0607C725.066 67.7096 723.261 67.882 721.62 68.5561C719.978 69.2303 718.573 70.3759 717.581 71.8487C716.588 73.3214 716.054 75.0553 716.045 76.8317C716.039 78.0183 716.267 79.1943 716.717 80.2921C717.166 81.3899 717.829 82.3877 718.665 83.2282C719.502 84.0687 720.496 84.7351 721.591 85.1892C722.686 85.6432 723.86 85.8759 725.045 85.8739Z" fill="#F77172"/>
<path d="M666.863 80.861C667.45 80.9836 668.06 80.9212 668.61 80.6826C669.16 80.4439 669.623 80.0406 669.934 79.5281C670.246 79.0156 670.391 78.4191 670.351 77.8204C670.31 77.2218 670.085 76.6504 669.707 76.1849C669.329 75.7194 668.816 75.3825 668.239 75.2206C667.662 75.0586 667.049 75.0796 666.484 75.2806C665.92 75.4816 665.431 75.8527 665.086 76.343C664.74 76.8333 664.555 77.4187 664.555 78.0187C664.489 78.7012 664.695 79.3821 665.127 79.914C665.559 80.4459 666.183 80.7861 666.863 80.861Z" fill="#030303"/>
<path d="M672.463 70.0073C672.463 70.0073 672.26 83.9063 671.137 85.8896C670.014 87.8729 661.077 92.8547 679.17 93.1358" stroke="#030303" stroke-width="0.79" stroke-linecap="round" stroke-linejoin="round"/>
<path d="M720.319 79.3462L728.523 73.8022" stroke="#030303" stroke-width="0.79" stroke-linecap="round" stroke-linejoin="round"/>
<path d="M833.64 293.187L821.161 239.637" stroke="#030303" stroke-width="0.79" stroke-linecap="round" stroke-linejoin="round"/>
<path d="M687.687 144.874L687.968 159.476" stroke="#030303" stroke-width="0.79" stroke-linecap="round" stroke-linejoin="round"/>
<path d="M676.41 176.436L695.221 180.246" stroke="#030303" stroke-width="0.79" stroke-linecap="round" stroke-linejoin="round"/>
<path d="M723.313 175.717L741.127 167.69" stroke="#030303" stroke-width="0.79" stroke-linecap="round" stroke-linejoin="round"/>
<path d="M667.768 47.8157C667.768 47.8157 660.359 36.556 650.314 33.4795" stroke="#030303" stroke-width="0.79" stroke-linecap="round" stroke-linejoin="round"/>
<path d="M707.076 55.6396L718.65 51.7354" stroke="#030303" stroke-width="0.79" stroke-linecap="round" stroke-linejoin="round"/>
<path d="M668.782 75.1765C669.531 82.6258 666.302 89.0286 661.607 89.4972C656.912 89.9657 652.482 84.2968 651.749 76.8319C651.016 69.3671 654.245 62.9798 658.94 62.5113C663.635 62.0428 668.08 67.7429 668.782 75.1765Z" stroke="#FFF7F4" stroke-width="1.58" stroke-linecap="round" stroke-linejoin="round"/>
<path d="M698.715 72.1466C699.464 79.5958 695.393 86.0924 689.652 86.6546C683.912 87.2168 678.734 81.6416 677.907 74.1611C677.08 66.6807 681.245 60.2153 686.985 59.6531C692.725 59.0909 697.982 64.7754 698.715 72.1466Z" stroke="#FFF7F4" stroke-width="1.58" stroke-linecap="round" stroke-linejoin="round"/>
<path d="M668.782 75.1763L677.907 74.2705" stroke="#FFF7F4" stroke-width="1.58" stroke-linecap="round" stroke-linejoin="round"/>
<path d="M698.715 72.1466L717.994 71.3657" stroke="#FFF7F4" stroke-width="1.58" stroke-linecap="round" stroke-linejoin="round"/>
<path d="M679.171 98.6951C679.171 98.6951 684.895 100.959 690.261 95.4155" stroke="#030303" stroke-width="0.79" stroke-linecap="round" stroke-linejoin="round"/>
<path d="M686.002 79.4086C686.589 79.5279 687.199 79.4624 687.747 79.2213C688.295 78.9801 688.755 78.575 689.064 78.0616C689.373 77.5482 689.516 76.9516 689.473 76.3537C689.43 75.7558 689.204 75.1858 688.825 74.7219C688.445 74.258 687.932 73.923 687.355 73.7628C686.778 73.6027 686.165 73.6251 685.602 73.8272C685.038 74.0292 684.551 74.401 684.206 74.8914C683.862 75.3818 683.677 75.9669 683.678 76.5664C683.613 77.2513 683.821 77.9343 684.256 78.4666C684.691 78.999 685.319 79.3376 686.002 79.4086Z" fill="#030303"/>
<path d="M775.146 308.632C775.316 308.632 775.479 308.565 775.599 308.445C775.719 308.325 775.786 308.162 775.786 307.992C775.786 307.822 775.719 307.659 775.599 307.539C775.479 307.419 775.316 307.352 775.146 307.352C774.977 307.352 774.814 307.419 774.694 307.539C774.574 307.659 774.507 307.822 774.507 307.992C774.507 308.162 774.574 308.325 774.694 308.445C774.814 308.565 774.977 308.632 775.146 308.632Z" fill="#CE0303"/>
<path d="M806.452 449.308C801.351 535.81 680.684 525.831 675.599 439.314C668.517 319.298 695.003 286.612 703.114 267.732C703.831 266.045 704.502 264.437 705.11 262.891C711.35 247.008 711.74 237.904 713.565 235.171C723.548 220.491 730.723 226.332 736.026 243.932C738.444 235.827 741.283 230.205 744.621 227.956C748.52 225.301 753.106 227.253 758.488 235.171C758.734 235.551 758.933 235.96 759.08 236.389C759.845 238.403 760.5 241.933 761.81 246.993C763.638 254.083 766.021 261.017 768.938 267.732C775.396 282.786 787.219 307.836 790.573 377.643C790.573 378.47 790.667 379.314 790.698 380.157C791.041 387.622 794.285 397.242 797.764 407.627C802.303 421.214 807.216 436.143 806.452 449.308Z" fill="#262626"/>
<path d="M797.764 407.627C787.282 406.299 768.127 406.206 744.496 416.575C708.152 432.52 676.519 417.2 676.113 415.014C672.463 395.243 773.93 380.016 790.573 377.674C790.573 378.502 790.667 379.345 790.698 380.188C791.041 387.606 794.285 397.242 797.764 407.627Z" fill="#030303"/>
<path d="M704.252 272.838C704.252 272.838 673.274 285.488 664.337 319.939C655.399 354.389 711.131 333.994 711.131 333.994L704.252 272.838Z" fill="#262626"/>
<path d="M732.875 347.002L699.823 358.746L699.386 367.835L677.548 370.068C676.879 370.137 676.23 370.336 675.639 370.656C675.047 370.976 674.524 371.409 674.099 371.931C673.675 372.453 673.357 373.054 673.165 373.699C672.972 374.344 672.909 375.021 672.978 375.691L673.103 376.893C673.201 377.925 673.615 378.901 674.288 379.688C673.113 380.002 672.087 380.724 671.396 381.725C670.704 382.727 670.391 383.943 670.514 385.154L670.623 386.357C670.764 387.712 671.436 388.956 672.492 389.816C673.547 390.677 674.9 391.084 676.254 390.948L678.375 390.73C674.054 392.463 670.685 395.04 671.746 398.897C673.618 405.753 699.823 403.395 699.823 403.395C681.027 408.642 672.011 406.877 671.574 412.577C671.137 418.278 673.961 420.683 697.467 420.683C735.652 420.683 768.751 387.622 768.751 387.622L732.875 347.002Z" fill="#F77172"/>
<path d="M905.501 303.041C909.696 304.712 923.579 336.118 901.804 357.919C880.029 379.72 741.142 395.055 741.142 395.055L728.523 357.934C728.523 357.934 849.222 280.709 905.501 303.041Z" fill="#F77172"/>
<path d="M586.97 302.807L577.611 361.057C577.611 361.057 574.319 389.792 611.63 387.747C648.941 385.701 737.976 358.2 737.976 358.2C737.976 358.2 747.818 373.691 759.813 375.222L774.881 378.611L775.302 395.102C777.542 395.223 779.764 394.652 781.667 393.464C783.571 392.277 785.063 390.531 785.94 388.465C788.14 383.655 791.119 377.799 792.944 374.3C793.972 372.301 794.211 369.988 793.615 367.82L793.022 365.664L798.029 351.984C798.562 350.529 798.707 348.96 798.45 347.432C798.193 345.904 797.542 344.47 796.563 343.27L789.996 335.274C787.209 331.882 783.283 329.622 778.952 328.918C770.748 327.606 757.006 325.264 749.316 323.202C737.945 320.079 647.241 315.191 647.241 315.191L648.161 298.746C648.161 298.746 621.644 292.703 587.126 302.869L586.97 302.807Z" fill="#F77172"/>
<path d="M647.802 304.337L648.13 298.668C648.13 298.668 621.613 292.625 587.079 302.791L584.77 317.034C611.474 306.274 647.802 304.337 647.802 304.337Z" fill="#030303"/>
<path d="M647.147 315.128C647.147 315.128 630.847 314.191 620.178 319.938" stroke="#030303" stroke-width="0.79" stroke-linecap="round" stroke-linejoin="round"/>
<path d="M774.148 357.934L784.022 369.412C785.843 371.535 786.762 374.288 786.58 377.08L785.831 388.418" stroke="#030303" stroke-width="0.79" stroke-linecap="round" stroke-linejoin="round"/>
<path d="M792.866 365.618L787.188 354.561L783.757 347.861" stroke="#030303" stroke-width="0.79" stroke-linecap="round" stroke-linejoin="round"/>
<path d="M791.15 352.781L787.204 354.561" stroke="#030303" stroke-width="0.79" stroke-linecap="round" stroke-linejoin="round"/>
<path d="M787.204 385.467C789.153 381.375 791.353 377.049 792.819 374.238C793.847 372.238 794.086 369.925 793.49 367.757L792.897 365.602L797.904 351.922C798.437 350.467 798.582 348.898 798.325 347.37C798.068 345.842 797.417 344.407 796.438 343.207L789.871 335.212C788.025 332.959 785.659 331.19 782.977 330.058" stroke="#030303" stroke-width="0.79" stroke-linecap="round" stroke-linejoin="round"/>
<path d="M774.99 387.606L775.178 395.009C777.417 395.13 779.639 394.558 781.543 393.371C783.446 392.183 784.938 390.438 785.816 388.372C786.252 387.419 786.72 386.435 787.204 385.436" stroke="#030303" stroke-width="0.79" stroke-linecap="round" stroke-linejoin="round"/>
<path d="M675.053 375.675C707.637 367.476 737.851 358.137 737.851 358.137C737.851 358.137 747.694 373.629 759.689 375.16L774.757 378.548L774.99 387.637" stroke="#030303" stroke-width="0.79" stroke-linecap="round" stroke-linejoin="round"/>
<path d="M678.313 391.401C678.313 391.401 698.029 389.84 712.754 385.467" stroke="#030303" stroke-width="0.79" stroke-linecap="round" stroke-linejoin="round"/>
<path d="M676.113 378.907C677.314 378.907 702.63 374.909 711.162 371.724" stroke="#030303" stroke-width="0.79" stroke-linecap="round" stroke-linejoin="round"/>
<path d="M698.216 403.754L714.75 400.24" stroke="#030303" stroke-width="0.79" stroke-linecap="round" stroke-linejoin="round"/>
<path d="M770.826 274.056L835.792 323.171C837.988 324.808 839.715 326.995 840.799 329.511L851.468 354.124C852.608 356.731 852.918 359.626 852.358 362.416L846.836 390.261C846.836 390.261 853.481 414.982 841.532 414.982C829.584 414.982 823.735 409.673 825.591 392.666C826.355 385.779 826.932 377.486 828.149 371.38C828.714 368.533 828.708 365.601 828.129 362.756C827.551 359.911 826.412 357.21 824.78 354.811L817.277 343.879C814.622 339.977 810.799 337.019 806.358 335.43L778.828 325.67L770.826 274.056Z" fill="#262626"/>
<path d="M665.366 316.222C665.366 316.222 685.207 295.326 695.72 317.674C706.234 340.022 708.199 363.556 690.838 363.556C673.477 363.556 675.739 317.049 665.366 316.222Z" fill="#262626"/>
<path d="M645.463 223.599L648.068 281.818" stroke="#030303" stroke-width="0.79" stroke-linecap="round" stroke-linejoin="round"/>
<path d="M761.81 247.055C754.401 255.816 739.083 270.386 720.646 267.716C715.226 266.975 709.959 265.367 705.048 262.953C711.287 247.07 711.677 237.966 713.502 235.233C723.485 220.553 730.66 226.394 735.964 243.994C738.381 235.889 741.22 230.267 744.558 228.018L759.018 236.451C759.845 238.403 760.5 241.933 761.81 247.055Z" fill="#030303"/>
<path d="M834.529 393.353C834.529 393.353 836.479 406.502 834.279 413.218" stroke="#030303" stroke-width="0.79" stroke-linecap="round" stroke-linejoin="round"/>
<path d="M843.357 394.915C843.357 394.915 845.307 408.064 843.108 414.78" stroke="#030303" stroke-width="0.79" stroke-linecap="round" stroke-linejoin="round"/>
<path d="M686.626 341.787C686.626 341.787 691.306 354.28 690.51 361.276" stroke="#030303" stroke-width="0.79" stroke-linecap="round" stroke-linejoin="round"/>
<path d="M696.25 340.006C696.25 340.006 700.93 352.5 700.119 359.496" stroke="#030303" stroke-width="0.79" stroke-linecap="round" stroke-linejoin="round"/>
<path d="M673.337 305.212C673.337 305.212 686.876 296.904 694.831 315.082" stroke="#030303" stroke-width="0.79" stroke-linecap="round" stroke-linejoin="round"/>
<path d="M783.772 302.276L782.977 323.28" stroke="#030303" stroke-width="0.79" stroke-linecap="round" stroke-linejoin="round"/>
<path d="M715.015 174.125C715.015 173.933 714.983 173.743 714.922 173.562C714.048 170.876 706.592 149.185 694.769 152.839C685.956 155.572 672.339 165.332 664.961 170.861C664.695 171.075 664.507 171.369 664.425 171.7C664.343 172.031 664.371 172.38 664.506 172.693C664.64 173.006 664.873 173.267 665.169 173.435C665.466 173.604 665.809 173.67 666.146 173.625C674.132 172.407 687.266 171.673 690.994 179.153C696.407 190.022 714.688 185.041 715.015 174.125Z" fill="#262626"/>
<path d="M752.404 174.125C752.367 173.939 752.367 173.748 752.404 173.562C753.278 170.876 760.749 149.185 772.557 152.839C781.37 155.572 794.987 165.332 802.365 170.861C802.631 171.075 802.819 171.369 802.901 171.7C802.983 172.031 802.955 172.38 802.82 172.693C802.686 173.006 802.453 173.267 802.157 173.435C801.861 173.604 801.518 173.67 801.18 173.625C793.194 172.407 780.06 171.673 776.348 179.153C771.029 190.022 752.716 185.041 752.404 174.125Z" fill="#262626"/>
<path d="M772.417 202.844C772.42 206.154 771.995 209.45 771.153 212.651C769.593 219.335 766.037 226.519 762.434 233.625C761.092 236.295 759.751 238.95 758.534 241.558C757.988 242.714 757.458 243.854 756.974 244.994C756.616 245.79 756.288 246.555 755.976 247.383C755.393 248.837 754.588 250.191 753.59 251.396C752.272 252.973 750.688 254.305 748.91 255.332C745.616 257.197 742.012 258.451 738.272 259.033C736.572 259.33 734.997 259.502 733.593 259.611C732.189 259.72 730.66 259.33 728.913 259.033C724.031 258.19 718.151 256.3 714.298 252.146C714.157 252.006 714.033 251.849 713.892 251.693C713.258 250.986 712.704 250.211 712.239 249.382C711.859 248.743 711.53 248.074 711.256 247.383C706.015 234.109 695.33 219.054 695.33 206.67C695.341 206.375 695.383 206.082 695.455 205.795C695.455 204.827 695.33 203.843 695.33 202.844C695.324 196.68 696.801 190.606 699.635 185.134C703.597 177.474 710.013 171.368 717.856 167.795C725.698 164.223 734.511 163.391 742.882 165.433C751.253 167.475 758.697 172.273 764.018 179.057C769.34 185.841 772.232 194.218 772.23 202.844H772.417Z" fill="#262626"/>
<path d="M700.837 183.167C700.837 183.167 703.395 177.217 711.303 171.704Z" fill="#151617"/>
<path d="M701.616 183.479C704.222 179.5 707.519 176.019 711.35 173.203" stroke="#030303" stroke-width="0.79" stroke-linecap="round" stroke-linejoin="round"/>
<path d="M765.943 181.917C763.338 177.938 760.041 174.458 756.21 171.642" stroke="#030303" stroke-width="0.79" stroke-linecap="round" stroke-linejoin="round"/>
<path d="M714.844 208.513C716.774 208.513 718.338 206.653 718.338 204.359C718.338 202.064 716.774 200.205 714.844 200.205C712.914 200.205 711.35 202.064 711.35 204.359C711.35 206.653 712.914 208.513 714.844 208.513Z" fill="#030303"/>
<path d="M752.279 208.513C754.209 208.513 755.773 206.653 755.773 204.359C755.773 202.064 754.209 200.205 752.279 200.205C750.35 200.205 748.785 202.064 748.785 204.359C748.785 206.653 750.35 208.513 752.279 208.513Z" fill="#030303"/>
<path d="M715.015 231.844C715.015 231.844 730.395 218.945 748.786 229.986" stroke="#030303" stroke-width="0.79" stroke-linecap="round" stroke-linejoin="round"/>
<g opacity="0.18">
<path d="M754.572 234.562C754.572 234.562 758.534 247.211 752.28 250.944C746.268 248.375 739.767 247.157 733.234 247.376C726.702 247.595 720.297 249.244 714.469 252.209C718.322 256.363 724.203 258.252 729.085 259.096C730.77 259.392 732.361 259.564 733.764 259.673C735.168 259.783 736.666 259.392 738.444 259.096C742.161 258.511 745.743 257.263 749.02 255.41C750.081 254.786 751.074 254.054 751.983 253.224L752.233 253.005C752.748 252.52 753.228 251.998 753.668 251.443C754.666 250.237 755.472 248.883 756.054 247.43C756.366 246.633 756.694 245.868 757.053 245.04C757.536 243.9 758.067 242.76 758.612 241.605C757.568 239.096 756.211 236.729 754.572 234.562Z" fill="white"/>
</g>
<path d="M739.411 252.537L736.572 253.567C734.554 254.282 732.351 254.282 730.333 253.567L727.494 252.537C726.255 252.177 725.158 251.442 724.353 250.433C723.549 249.423 723.077 248.188 723.002 246.899C723.002 243.495 726.402 240.652 730.598 240.652H736.276C740.472 240.652 743.872 243.417 743.872 246.899C743.799 248.184 743.332 249.416 742.533 250.425C741.735 251.434 740.644 252.172 739.411 252.537Z" fill="#030303"/>
<path d="M700.54 269.293C700.54 269.293 730.177 285.238 770.826 269.293" stroke="#FFB13B" stroke-width="9" stroke-miterlimit="10"/>
<path d="M581.673 337.738C579.176 350.64 580.319 373.851 587.292 380.19C594.159 386.433 609.142 387.473 616.633 386.433" stroke="black" stroke-width="0.7"/>
</g>
</g>
<defs>
<clipPath id="clip0_356_13080">
<rect width="351.111" height="471.336" fill="white" transform="translate(4.20874 8.74023)"/>
</clipPath>
<clipPath id="clip1_356_13080">
<rect width="354.594" height="504.423" fill="white" transform="translate(569.812 4.99414)"/>
</clipPath>
</defs>
</svg>
