<svg width="133" height="134" viewBox="0 0 133 134" fill="none" xmlns="http://www.w3.org/2000/svg">
<mask id="mask0_312_10460" style="mask-type:alpha" maskUnits="userSpaceOnUse" x="0" y="0" width="133" height="134">
<rect width="133" height="134" fill="#44786C"/>
</mask>
<g mask="url(#mask0_312_10460)">
<path d="M121.8 81.3718C140.093 63.078 140.093 33.4178 121.8 15.1239C103.506 -3.1699 73.8455 -3.16989 55.5517 15.1239C37.2578 33.4178 37.2578 63.078 55.5517 81.3718C73.8455 99.6656 103.506 99.6656 121.8 81.3718Z" fill="#90C0B5" fill-opacity="0.2"/>
<path d="M88.2323 88.0788C91.2268 86.6362 93.1608 83.6221 94.4202 80.5457C95.937 76.8376 96.6934 72.8215 96.6583 68.8171L93.9874 68.4701L75.2052 73.8197L71.3412 75.0908C71.9455 78.9588 73.4116 82.7487 76.1761 85.482C79.2915 88.5623 84.2824 89.9738 88.2323 88.075V88.0788Z" fill="#092C24"/>
<path d="M96.6544 68.8171C96.6933 72.8254 95.9369 76.8376 94.4162 80.5457C93.1568 83.6221 91.2267 86.6362 88.2283 88.0788C84.2785 89.9777 79.2876 88.5662 76.1721 85.4859C73.4077 82.7487 71.9416 78.9588 71.3372 75.0947L53.9821 80.8109L59.8581 148.863L93.6949 153.924L115.023 146.484L118.529 71.6518L96.6505 68.8171H96.6544Z" fill="#18594A"/>
<path d="M100.14 73.0203C99.4071 75.6055 98.6897 78.6273 97.4888 81.657C96.8883 83.1698 96.1553 84.671 95.2273 86.0669C94.3032 87.4628 93.188 88.7612 91.8857 89.814C90.5834 90.8706 89.0939 91.666 87.5031 92.1105C85.9161 92.5667 84.2629 92.6915 82.6837 92.5122C81.1046 92.3328 79.6073 91.8376 78.2894 91.1514C76.9676 90.4612 75.8251 89.5722 74.8893 88.6091C75.6575 89.7087 76.7063 90.7692 78.0047 91.6271C79.3032 92.4849 80.8511 93.1477 82.5433 93.4519C84.2356 93.7521 86.0487 93.7014 87.8072 93.253C89.5657 92.8202 91.254 91.9546 92.6772 90.7965C94.1082 89.6424 95.2857 88.2192 96.2215 86.7024C97.1651 85.1896 97.8592 83.5714 98.3778 81.9767C99.4149 78.7755 99.8165 75.6835 100.14 73.0203Z" fill="#092C24"/>
<path d="M73.4076 87.299C72.7136 85.9265 71.8519 84.168 71.1734 82.3315C70.4872 80.4989 69.9959 78.6039 69.6255 77.1105C69.5085 78.6429 69.7775 80.686 70.4911 82.5849C71.189 84.4877 72.3198 86.2111 73.4076 87.2951V87.299Z" fill="#092C24"/>
<path d="M82.3406 98.1659C80.5899 97.2808 78.4259 96.037 76.5075 94.4656C74.5735 92.906 72.9164 91.0461 71.6959 89.5098C72.043 90.4261 72.5772 91.4399 73.2985 92.4264C74.0159 93.4129 74.9127 94.3681 75.9226 95.1909C76.9325 96.0097 78.0515 96.6959 79.1628 97.195C80.2741 97.698 81.3775 98.0138 82.3445 98.1659H82.3406Z" fill="#092C24"/>
<path d="M105.455 82.2262L104.917 84.0627C103.969 87.3029 103.357 90.6367 103.1 94.0055L100.76 124.466L82.3406 121.608L59.3317 142.71L59.862 148.859L93.6988 153.92L115.027 146.48L117.406 95.7212L105.455 82.2223V82.2262Z" fill="#092C24"/>
<path d="M74.4722 67.0351C74.7646 70.9109 75.0571 74.7905 75.3456 78.6663C77.0573 80.3039 79.5021 81.4425 81.8689 81.5789C84.2357 81.7115 86.6414 80.9746 88.5286 79.5397C90.2053 78.2647 91.4491 76.475 92.303 74.5488C93.1569 72.6226 93.6404 70.5483 93.9874 68.4701C90.9539 63.5766 88.2479 58.3089 86.5635 52.8033C83.7639 58.4453 79.3773 63.0775 74.4761 67.039L74.4722 67.0351Z" fill="#F2C9AD"/>
<path d="M82.0132 70.2168C83.4871 68.9574 84.302 67.1014 84.9181 65.261C86.2087 61.397 86.8053 57.3068 86.7 53.2322C86.6532 53.0879 86.6063 52.9475 86.5635 52.8033C83.7639 58.4453 79.3773 63.0775 74.4761 67.039C74.5736 68.3258 74.6711 69.6164 74.7686 70.9031C75.6225 71.3866 76.5856 71.679 77.5682 71.7297C79.1708 71.8116 80.7967 71.2618 82.0171 70.2168H82.0132Z" fill="#472948"/>
<path d="M84.6294 30.7926C81.5218 26.3827 76.3983 23.3297 70.9161 22.7331C65.4339 22.1365 59.6983 24.0393 55.8148 27.8332C53.2374 30.352 51.4867 33.6546 50.8745 37.1521C49.7633 43.5155 52.3562 49.9023 55.2143 55.7354C57.0508 59.4864 59.0861 63.2608 62.225 66.0916C65.3638 68.9223 69.8517 70.6731 74.0043 69.6398C76.5738 69.0003 78.7729 67.3822 80.6172 65.5379C84.1927 61.9663 86.6726 57.3926 87.7604 52.5342C88.2556 50.3234 88.4545 48.2179 88.0724 45.9915C87.6708 43.6715 88.2088 41.2969 87.8579 38.9418C87.4251 36.037 86.3334 33.2179 84.6216 30.7926H84.6294Z" fill="#F2C9AD"/>
<path d="M78.3402 41.5543C74.7335 41.5036 71.1267 41.4529 67.52 41.4022C68.8535 39.9361 70.7953 38.9379 72.7761 38.9262C74.7568 38.9145 76.9911 40.1038 78.3402 41.5543Z" fill="#6A3649"/>
<path d="M53.0191 46.9429C55.1597 45.8628 57.3004 44.7827 59.441 43.7066C58.24 42.8995 56.6609 42.7474 55.2923 43.2231C53.9237 43.7027 52.8397 45.5041 53.0152 46.9429H53.0191Z" fill="#6A3649"/>
<path d="M72.8579 49.6216C73.5707 49.6216 74.1485 48.8028 74.1485 47.7929C74.1485 46.7829 73.5707 45.9642 72.8579 45.9642C72.1451 45.9642 71.5673 46.7829 71.5673 47.7929C71.5673 48.8028 72.1451 49.6216 72.8579 49.6216Z" fill="#472948"/>
<path d="M59.2304 50.031C59.5813 50.8342 59.4838 51.653 59.012 51.8597C58.5402 52.0663 57.8735 51.5828 57.5225 50.7796C57.1716 49.9764 57.2691 49.1576 57.7409 48.9509C58.2127 48.7443 58.8794 49.2278 59.2304 50.031Z" fill="#472948"/>
<path d="M68.9315 53.5675C66.67 53.7586 64.4513 54.4058 62.4394 55.4547C63.4688 56.0396 64.927 56.2579 66.0656 55.9304C67.2041 55.6029 68.37 54.6125 68.9315 53.5714V53.5675Z" fill="#EBA58E"/>
<path d="M76.2736 54.0354C72.4953 56.4451 68.4753 58.4765 64.2915 60.0869C65.4223 62.2704 67.6604 64.0367 70.0973 64.3681C72.5343 64.6996 75.174 63.5376 76.3633 61.3853C77.5291 59.2759 76.9208 56.3554 76.2736 54.0354Z" fill="white"/>
<path d="M77.1197 63.1945C76.0201 64.2707 74.71 65.1285 73.2868 65.7056C74.0861 66.0604 75.2013 66.0448 75.9382 65.573C76.6791 65.1051 77.1002 64.0679 77.1197 63.1945Z" fill="#EBA58E"/>
<path d="M83.0034 49.4656C83.2491 50.3624 81.9 51.5127 79.9894 52.0352C78.0788 52.5577 76.3359 52.2496 76.0903 51.3528C75.8446 50.456 77.1937 49.3058 79.1043 48.7833C81.0149 48.2608 82.7578 48.5688 83.0034 49.4656Z" fill="#EBA7AC"/>
<path d="M60.7862 55.7121C60.8603 56.6401 59.8426 57.4784 58.5091 57.5837C57.1756 57.6889 56.037 57.0261 55.963 56.0981C55.8889 55.1701 56.9066 54.3318 58.2401 54.2265C59.5736 54.1212 60.7121 54.7841 60.7862 55.7121Z" fill="#EBA7AC"/>
<path d="M65.6874 34.4851C68.9354 30.391 72.6122 28.1217 77.9151 29.5644L80.0986 30.0323C77.5291 27.3068 73.1542 26.3983 69.4578 27.0066C65.7615 27.6187 62.4043 29.5254 59.3435 31.6855C57.7877 32.7851 56.2787 33.9587 54.6255 34.9023C53.5025 35.5457 52.2938 36.0721 51.0422 36.3762C50.9837 36.6335 50.9291 36.8909 50.8862 37.1521C50.5236 39.2343 50.5587 41.3203 50.8706 43.3908C56.7466 42.5953 62.1235 38.9925 65.6913 34.489L65.6874 34.4851Z" fill="#EBA58E"/>
<path d="M89.0979 49.5397C86.3022 47.4692 84.7191 43.8664 85.0817 40.4079C82.7851 39.8503 80.4145 38.3725 79.1511 36.3762C77.8878 34.3798 77.4316 31.8844 77.9112 29.5683C75.4898 28.0749 71.8364 27.9735 69.1927 29.0224C65.8356 30.352 63.6053 33.4752 61.0123 35.9863C58.7742 38.1542 56.1072 39.9634 53.101 40.7822C50.0947 41.601 46.7181 41.3515 44.0784 39.6944C41.462 38.0528 39.7776 35.1636 39.1615 32.1378C38.5416 29.1121 38.9081 25.9538 39.7191 22.9709C40.1207 21.4854 40.6588 19.992 41.6687 18.8339C43.782 16.4087 47.4199 16.0188 50.6094 16.4321C53.7989 16.8454 56.9455 17.8864 60.1545 17.6564C62.8293 17.4653 65.356 16.4009 67.7929 15.2818C70.2299 14.1628 72.6708 12.9579 75.3027 12.4627C77.9346 11.9675 80.8551 12.26 82.9723 13.9054C85.5769 15.9291 86.4191 19.4617 86.813 22.737C90.1311 23.7664 92.7436 26.6244 93.9172 29.8958C95.0908 33.1672 94.9388 36.8168 93.9562 40.1467C92.9736 43.4804 91.1215 46.7206 89.0979 49.5436V49.5397Z" fill="#6A3649"/>
<path d="M48.192 37.156C49.7165 37.5654 50.8044 35.7016 49.7126 34.5631C48.3596 33.1516 47.2445 31.5062 46.4452 29.7204C45.8681 28.4297 45.4587 27.065 45.2169 25.673C44.9323 24.0237 42.6123 23.9496 42.1717 25.56C42.0001 26.1916 41.8871 26.835 41.8442 27.4861C41.6609 30.2701 42.5616 33.1711 44.5268 35.1519C45.4509 36.0838 46.7727 36.7739 48.192 37.156Z" fill="#8E5A61"/>
<path d="M52.6018 18.7677C56.5673 19.9062 60.6887 21.3996 64.7087 20.4872C69.2746 19.45 72.8267 15.4729 77.4589 14.7905C80.4261 14.3538 83.5377 15.5002 85.6354 17.6291C85.0544 16.1708 84.2161 14.8646 82.9762 13.8976C80.8589 12.2522 77.9424 11.9559 75.3066 12.4549C72.6707 12.954 70.2338 14.155 67.7968 15.274C65.3598 16.3931 62.8332 17.4575 60.1584 17.6486C56.9494 17.8787 53.8028 16.8376 50.6133 16.4243C47.6499 16.0383 44.3045 16.3502 42.1521 18.3388C45.3767 17.1144 49.2018 17.7851 52.6096 18.7638L52.6018 18.7677Z" fill="#8E5A61"/>
<path d="M86.9338 46.1864C87.1482 44.6385 87.9592 43.1178 89.3083 42.3341C90.6614 41.5504 92.568 41.6907 93.5974 42.8644C94.6463 44.0653 94.541 45.8706 94.2252 47.4342C93.999 48.5415 93.691 49.6567 93.071 50.6042C92.4511 51.5517 91.4841 52.3198 90.3611 52.4719C87.1131 52.9086 86.614 48.448 86.9299 46.1864H86.9338Z" fill="#F2C9AD"/>
<path d="M92.4238 43.6325C91.5699 43.3986 90.6263 43.7183 89.9751 44.3188C89.3239 44.9192 88.9418 45.7653 88.7508 46.6271C88.5597 47.4927 88.5441 48.3817 88.5324 49.2668C88.5285 49.5592 88.5246 49.8555 88.6065 50.1402C88.6884 50.4209 88.8678 50.69 89.1368 50.803C89.6008 50.998 90.1233 50.6861 90.4547 50.3078C91.0084 49.6723 91.2852 48.8067 91.2111 47.9684C91.1332 47.13 90.7043 46.3307 90.0453 45.8043C90.3377 44.7516 91.3554 43.847 92.4277 43.6364L92.4238 43.6325Z" fill="#EBA58E"/>
<path d="M88.3141 40.135C88.2985 39.2459 88.1465 38.2166 87.8228 37.1599C87.4992 36.1032 87.0079 35.0193 86.3723 34.025C85.7368 33.0307 84.9648 32.1261 84.142 31.3853C83.3193 30.6444 82.4498 30.0713 81.6505 29.6852C82.9333 30.9135 84.4579 32.5823 85.6588 34.4812C86.8753 36.3723 87.7409 38.4544 88.3141 40.1388V40.135Z" fill="#8E5A61"/>
<path d="M91.3048 34.3993C90.7278 33.1009 89.48 31.5958 87.8658 30.5899C86.2671 29.5644 84.3722 29.0809 82.949 29.116C84.3098 29.5332 85.9903 30.196 87.5032 31.163C89.0238 32.1183 90.3417 33.3504 91.3009 34.4032L91.3048 34.3993Z" fill="#8E5A61"/>
<path d="M92.4511 30.7731C91.7883 29.8178 90.5444 28.804 89.0862 28.2582C87.6357 27.6967 86.0331 27.6265 84.9024 27.8994C86.0643 27.9969 87.5187 28.2465 88.8912 28.7728C90.2676 29.2875 91.5192 30.0713 92.4511 30.7692V30.7731Z" fill="#8E5A61"/>
<path d="M57.4134 31.5178C58.205 31.5802 59.0784 31.4555 59.944 31.1513C60.8096 30.8511 61.6635 30.391 62.4862 29.8412C64.1316 28.7495 65.6523 27.3146 67.4576 26.4451C69.2512 25.56 71.2944 25.209 73.1894 25.3182C75.096 25.4196 76.8429 25.985 78.2427 26.7297C76.9793 25.7744 75.2286 24.9946 73.2401 24.7645C71.2632 24.5228 69.0602 24.8269 67.1301 25.7783C66.1592 26.2423 65.2936 26.874 64.4904 27.5095C63.6832 28.149 62.9307 28.8079 62.1626 29.3889C60.6497 30.5587 59.0082 31.4087 57.4134 31.5178Z" fill="#8E5A61"/>
<path d="M67.173 23.201C68.0191 23.0294 68.9822 22.889 70.0038 22.8617C71.0253 22.8306 72.1054 22.9124 73.1621 23.1152C74.2187 23.3218 75.2481 23.6533 76.1839 24.0627C77.1197 24.4721 77.9619 24.9634 78.6794 25.4391C78.1491 24.7606 77.3926 24.0744 76.4685 23.5168C75.5444 22.9553 74.4527 22.5303 73.318 22.3081C72.1834 22.0897 71.0136 22.0741 69.9453 22.2457C68.8769 22.4133 67.9216 22.7682 67.173 23.1971V23.201Z" fill="#8E5A61"/>
<path d="M72.9516 20.6704C74.0199 20.6938 75.3534 20.9356 76.5505 21.5282C77.7553 22.1053 78.773 23.0021 79.4514 23.8287C79.2526 23.3335 78.9211 22.7955 78.461 22.3081C78.0009 21.8207 77.4161 21.3879 76.7727 21.072C76.1293 20.7601 75.4275 20.5691 74.7608 20.5106C74.094 20.4482 73.4623 20.5223 72.9516 20.6743V20.6704Z" fill="#8E5A61"/>
<path d="M78.4064 19.4071C78.7261 19.8243 79.1238 20.3585 79.4592 20.9356C79.7984 21.5087 80.0752 22.117 80.2858 22.5966C80.239 22.0741 80.0285 21.4035 79.6736 20.8108C79.3227 20.2142 78.8392 19.7034 78.4064 19.411V19.4071Z" fill="#8E5A61"/>
<path d="M52.8359 124.75C53.1947 124.559 53.5534 124.372 53.9082 124.181C53.5456 124.36 53.1869 124.548 52.8359 124.75Z" fill="white"/>
<path d="M105.049 112.698L104.075 127.417L86.7117 122.777C82.8984 123.596 77.6852 125.659 74.5386 127.316C74.0473 127.558 73.5365 127.87 73.0179 128.24L103.353 142.721C106.714 144.324 110.613 144.359 114.002 142.815C118.213 140.893 121.032 136.814 121.34 132.198L122.498 114.843L105.049 112.698Z" fill="#F2C9AD"/>
<path d="M105.049 112.698L122.498 114.843L122.128 120.407L104.936 114.398L105.049 112.698Z" fill="#472948"/>
<path d="M104.075 127.417L111.354 129.363C109.272 124.169 105.911 124.622 104.156 126.181L104.075 127.417Z" fill="#EBA58E"/>
<path d="M125.239 115.178L104.199 112.593L105.455 82.2262C105.735 75.4768 111.877 70.5093 118.533 71.6517C124.253 72.6304 128.277 77.8163 127.805 83.5987L125.235 115.178H125.239Z" fill="#18594A"/>
<path d="M123.57 110.183C118.95 108.826 111.3 107.851 106.484 108.007C111.105 109.364 118.755 110.339 123.57 110.183Z" fill="#092C24"/>
<path d="M106.387 89.3578C106.823 86.7531 107.174 83.3648 108.208 80.2143C108.722 78.6429 109.412 77.1378 110.239 75.816C111.066 74.4903 112.037 73.3674 113.007 72.4667C111.803 73.0125 110.532 73.9717 109.475 75.2624C108.41 76.5491 107.56 78.1399 107.011 79.8244C106.461 81.5049 106.2 83.2556 106.133 84.8893C106.067 86.527 106.184 88.0476 106.383 89.3539L106.387 89.3578Z" fill="#092C24"/>
<path d="M74.172 128.466C78.4065 123.097 82.637 117.724 86.8715 112.355C87.6942 111.31 88.5676 110.031 88.1777 108.76C87.7839 107.473 86.1853 106.877 84.8713 107.153C83.5533 107.43 82.4733 108.343 81.4829 109.251C77.5019 112.916 74.0043 117.104 71.1073 121.678C72.125 123.655 73.1582 126.489 74.1759 128.466H74.172Z" fill="#8C404C"/>
<path d="M130.741 132.942C131.79 131.628 132.671 130.178 133.334 128.634C132.839 128.965 132.339 129.297 131.844 129.632C134.004 122.044 133.919 113.786 131.115 106.452C130.468 115.299 127.337 123.951 122.174 131.16C117.012 138.374 109.83 144.121 101.661 147.584C100.628 148.02 99.5749 148.418 98.5105 148.777C98.5573 148.059 98.608 147.346 98.6548 146.628C97.9607 147.638 97.1692 148.582 96.3036 149.447C91.7806 150.687 87.0548 151.112 82.4655 150.258C81.4205 151.03 79.9311 151.99 78.8861 152.762C87.7371 157.351 98.4637 158.166 107.907 154.973C108.551 154.754 109.182 154.516 109.814 154.263C113.14 154.162 116.443 153.062 119.133 151.101C118.267 151.105 117.406 151.108 116.54 151.112C118.887 150.442 121.129 149.393 123.13 147.989C122.046 148.052 120.962 148.118 119.878 148.18C122.841 145.685 125.422 142.737 127.489 139.466C129.056 138.37 130.425 136.99 131.493 135.407C130.791 135.629 130.09 135.847 129.388 136.069C129.466 135.91 129.548 135.75 129.622 135.586C130.027 134.72 130.405 133.835 130.749 132.942H130.741Z" fill="#BD6C67"/>
<path d="M133.353 119.373C131.474 128.369 126.935 137.064 120.65 143.47C121.258 143.462 121.948 143.299 122.557 143.291C121.461 144.562 119.737 145.303 118.065 145.431C115.312 148.083 111.947 150.461 108.36 151.783C109.206 151.877 110.185 152.017 111.031 152.111C109.089 153.198 106.82 153.912 104.593 153.998C105.159 154.298 105.712 154.637 106.274 154.937C104.656 155.452 102.702 155.281 101.209 154.47C95.9877 155.214 89.7725 154.797 84.6295 153.647C85.811 152.785 86.8911 151.791 87.858 150.695C86.0527 150.722 84.2474 150.586 82.4655 150.255C81.4206 151.027 79.9311 151.986 78.8861 152.758C87.7372 157.347 98.4637 158.162 107.907 154.969C108.551 154.75 109.182 154.512 109.814 154.259C113.14 154.158 116.443 153.058 119.133 151.097C118.267 151.101 117.406 151.105 116.54 151.109C118.887 150.438 121.129 149.389 123.13 147.985C122.046 148.048 120.962 148.114 119.878 148.176C122.841 145.681 125.422 142.733 127.489 139.462C129.056 138.366 130.425 136.986 131.493 135.403C130.792 135.625 130.09 135.843 129.388 136.066C129.466 135.906 129.548 135.746 129.622 135.582C130.027 134.716 130.405 133.831 130.749 132.938C131.797 131.624 132.679 130.174 133.342 128.63C132.846 128.961 132.347 129.293 131.852 129.628C132.803 126.294 133.318 122.832 133.357 119.369L133.353 119.373Z" fill="#A64F5A"/>
<path d="M69.0836 69.6086C70.4249 70.6847 71.8091 71.8116 72.5617 73.3595C73.6183 75.5275 73.1387 78.3466 71.427 80.0466C69.1148 82.3432 65.1182 82.2535 62.3966 80.4599C59.675 78.6624 58.0763 75.547 57.2809 72.3848C56.8988 70.8758 55.768 60.2896 58.0763 60.8004C58.9185 60.9876 60.1663 62.4614 60.8369 62.9995C61.7103 63.7014 62.5876 64.4032 63.461 65.1012L69.0836 69.6086Z" fill="#472948"/>
<path d="M101.209 102.72C99.3565 102.72 97.9957 104.397 96.9664 105.941C96.5959 106.498 96.2294 107.06 95.8707 107.621C98.4636 108.245 100.92 109.446 102.994 111.127C103.579 110.296 104.078 109.419 104.371 108.44C105.1 106.015 103.743 102.724 101.213 102.72H101.209Z" fill="#F0BF6C"/>
<path d="M101.06 107.922C101.361 107.313 101.712 106.623 102.152 105.991C102.589 105.356 103.108 104.783 103.572 104.288C102.897 104.35 102.07 104.841 101.563 105.586C101.045 106.323 100.877 107.266 101.057 107.922H101.06Z" fill="#DF8D6D"/>
<path d="M98.7482 106.413C99.029 105.797 99.376 105.118 99.8283 104.506C100.277 103.89 100.819 103.352 101.322 102.899C100.647 102.899 99.7815 103.352 99.2551 104.085C98.7131 104.81 98.5455 105.765 98.7443 106.413H98.7482Z" fill="#DF8D6D"/>
<path d="M87.7644 122.575C83.9198 123.194 77.9854 125.499 74.5386 127.316C72.4915 121.272 70.4015 115.989 67.91 110.686C64.4943 103.41 59.9089 96.6842 54.3877 90.8472C55.885 90.9603 57.4018 91.1279 58.899 91.2371C60.3378 91.3424 61.7883 91.4516 63.2115 91.2254C64.6347 90.9993 66.0462 90.4105 66.9976 89.3265C67.9489 88.2426 68.3428 86.6127 67.7306 85.3065C66.8065 86.8077 65.1221 88.2114 63.4493 88.7612C61.7766 89.3109 59.983 89.4084 58.2245 89.3226C55.1286 89.1745 52.0014 88.4609 49.3851 86.8038C46.7688 85.1467 44.7062 82.464 44.2422 79.4032C43.7782 76.3385 45.5679 73.0671 48.2466 71.5074C46.9443 73.4024 46.878 76.0694 48.0867 78.0268C49.2954 79.9842 51.7129 81.1188 53.99 80.7991C56.2671 80.4794 58.2791 78.7248 58.9029 76.51C59.9323 77.5355 61.4413 78.1789 62.9658 78.3309C64.2643 78.4596 65.5744 78.2257 66.6154 77.555C68.8769 76.0928 69.9024 72.9735 68.951 70.4547C68.1712 68.392 66.3464 66.9455 64.7322 65.4443C61.7805 62.6915 59.3162 59.4123 57.4953 55.8056C55.7368 52.3237 54.415 48.3465 51.2528 46.0694C48.3947 44.0146 44.4566 43.8157 41.1696 45.0713C37.8827 46.3268 35.2078 48.8768 33.2661 51.8129C31.3243 54.7489 30.0493 58.0671 28.9107 61.397C26.7155 67.8033 24.9648 74.3616 23.6664 81.0097C21.5257 91.9779 21.4205 101.235 22.8203 112.324C24.2201 123.413 28.1543 134.377 35.3599 142.92C42.5655 151.463 53.2609 157.351 64.4358 157.425C75.6108 157.499 86.9378 151.175 91.5466 140.994C95.3755 132.533 94.623 122.146 100.164 114.69C101.064 113.478 102.129 112.347 102.994 111.115C100.92 109.434 98.4675 108.233 95.8707 107.61C92.8021 112.386 90.0883 117.389 87.7644 122.567V122.575Z" fill="#DF8D6D"/>
<path d="M53.9861 80.8069C51.709 81.1266 49.2915 79.992 48.0828 78.0346C46.874 76.0773 46.9403 73.4102 48.2426 71.5153C45.5639 73.071 43.7742 76.3463 44.2382 79.411C44.7022 82.4757 46.7649 85.1545 49.3812 86.8116C51.9975 88.4687 55.1246 89.1823 58.2205 89.3304C59.9791 89.4162 61.7727 89.3187 63.4454 88.769C65.1181 88.2192 66.8065 86.8116 67.7267 85.3143C66.9234 83.2244 65.9369 83.8599 62.9541 78.3427C61.4295 78.1945 59.9245 77.5511 58.8912 76.5218C58.2673 78.7365 56.2554 80.4911 53.9783 80.8108L53.9861 80.8069Z" fill="#984058"/>
<path d="M47.6422 59.1238C48.0282 60.7029 47.7124 62.1339 46.9403 62.3211C46.1683 62.5082 45.2325 61.3814 44.8465 59.8022C44.4605 58.2231 44.7763 56.7921 45.5484 56.6049C46.3204 56.4178 47.2562 57.5446 47.6422 59.1238Z" fill="#472948"/>
<path d="M56.5401 57.6694C56.8793 59.0614 56.6766 60.3052 56.0878 60.4495C55.499 60.5938 54.7465 59.58 54.4073 58.188C54.068 56.796 54.2708 55.5522 54.8596 55.4079C55.4483 55.2636 56.2009 56.2774 56.5401 57.6694Z" fill="#472948"/>
<path d="M37.3368 130.977C39.6139 126.793 40.5497 121.943 40.3352 117.182C40.0818 111.481 38.0854 105.695 33.9913 101.722C30.8135 98.6377 26.2593 96.8558 21.904 97.2067C21.8221 102.088 22.1418 106.997 22.8164 112.331C23.9471 121.292 26.7389 130.17 31.57 137.758C33.9368 135.945 35.9097 133.597 37.3368 130.973V130.977Z" fill="#A64F5A"/>
<path d="M65.2781 147.693C62.3537 139.992 69.3722 129.854 74.5385 127.32C74.1837 126.267 73.8211 125.245 73.4624 124.236C69.1343 125.479 58.2791 135.258 65.2781 147.693Z" fill="#A64F5A"/>
<path d="M88.3142 134.307C85.7408 134.514 83.144 135.297 81.171 136.962C78.4065 139.29 77.2056 143.092 77.3225 146.702C77.4005 149.178 78.0283 151.592 78.8939 153.924C84.3917 151.081 88.9966 146.632 91.5427 141.002C92.4863 138.916 93.1531 136.717 93.7029 134.471C91.9092 134.28 90.1117 134.163 88.3142 134.307Z" fill="#A64F5A"/>
<path d="M52.3212 129.172C49.9076 128.497 47.2172 130.634 46.0202 132.549C44.7686 134.549 44.3708 136.99 44.4761 139.345C44.558 141.131 44.9518 142.983 46.0943 144.359C47.7319 146.332 50.668 146.897 53.1361 146.199C55.6355 145.494 57.7722 143.599 58.7782 141.201C59.7803 138.803 59.6282 135.952 58.3805 133.675C57.1171 131.379 54.8166 129.87 52.3251 129.172H52.3212Z" fill="#A64F5A"/>
<path d="M82.9762 130.166C83.0971 130.942 83.7015 131.644 84.4735 131.788C85.3625 131.952 86.2242 131.398 86.891 130.79C87.3862 130.338 87.8463 129.831 88.0997 129.211C88.7392 127.64 87.4486 126.045 85.8226 126.657C84.4423 127.179 82.7189 128.521 82.9762 130.17V130.166Z" fill="#A64F5A"/>
<path d="M54.0602 73.8196C54.4328 73.8196 54.7348 73.5176 54.7348 73.1451C54.7348 72.7725 54.4328 72.4705 54.0602 72.4705C53.6877 72.4705 53.3857 72.7725 53.3857 73.1451C53.3857 73.5176 53.6877 73.8196 54.0602 73.8196Z" fill="#DF8D6D"/>
<path d="M51.5998 75.621C51.5998 76.0344 51.2645 76.3697 50.8512 76.3697C50.4379 76.3697 50.1026 76.0344 50.1026 75.621C50.1026 75.2077 50.4379 74.8724 50.8512 74.8724C51.2645 74.8724 51.5998 75.2077 51.5998 75.621Z" fill="#DF8D6D"/>
<path d="M54.2941 76.9857C54.2941 77.325 54.0173 77.6018 53.678 77.6018C53.3388 77.6018 53.062 77.325 53.062 76.9857C53.062 76.6465 53.3388 76.3697 53.678 76.3697C54.0173 76.3697 54.2941 76.6465 54.2941 76.9857Z" fill="#DF8D6D"/>
<path d="M64.5489 71.5854C64.5489 71.8974 64.2955 72.1469 63.9874 72.1469C63.6794 72.1469 63.426 71.8935 63.426 71.5854C63.426 71.2774 63.6794 71.024 63.9874 71.024C64.2955 71.024 64.5489 71.2735 64.5489 71.5854Z" fill="#DF8D6D"/>
<path d="M66.3192 74.194C66.3192 74.6424 65.9565 75.005 65.5081 75.005C65.0597 75.005 64.6971 74.6424 64.6971 74.194C64.6971 73.7456 65.0597 73.3829 65.5081 73.3829C65.9565 73.3829 66.3192 73.7456 66.3192 74.194Z" fill="#DF8D6D"/>
<path d="M67.7345 71.293C67.7345 71.5932 67.4888 71.8389 67.1886 71.8389C66.8884 71.8389 66.6427 71.5932 66.6427 71.293C66.6427 70.9928 66.8884 70.7471 67.1886 70.7471C67.4888 70.7471 67.7345 70.9928 67.7345 71.293Z" fill="#DF8D6D"/>
<path d="M58.3882 72.1469C58.6806 74.1627 58.5676 76.7908 57.9398 78.4323C58.3726 77.8591 58.704 77.2119 58.899 76.5217C59.4215 77.0403 60.0648 77.4614 60.7667 77.7695C58.7937 76.1474 59.0355 74.2563 58.3882 72.1469Z" fill="#472948"/>
<path d="M59.3397 113.93C61.9014 114.145 64.4203 114.698 66.9703 115.022C67.9607 115.147 68.9589 115.24 69.957 115.264C69.302 113.727 68.6235 112.207 67.91 110.69C67.3563 109.512 66.7714 108.35 66.1554 107.2C60.9227 108.518 55.9708 111.006 51.6856 114.289C54.2045 113.837 56.7857 113.716 59.3358 113.93H59.3397Z" fill="#A64F5A"/>
<path d="M82.8828 93.5532C81.9548 94.2278 81.0931 95.0193 80.2898 95.8342C78.5274 97.6122 76.9015 99.5657 74.8193 100.954C72.7372 102.342 70.039 103.102 67.7034 102.198C65.5628 101.367 64.163 99.3551 62.5565 97.7097C61.0086 96.1228 59.1604 94.8399 57.1562 93.908C54.0135 92.4459 49.7634 91.4828 46.3049 92.286C43.0335 93.0502 42.1445 98.0567 42.3278 100.837C42.5305 103.898 43.7237 106.802 44.9987 109.594C45.8643 111.489 46.9756 113.544 48.9602 114.191C51.1983 114.921 53.5066 113.556 55.7486 112.838C61.999 110.834 69.2241 113.84 75.2015 111.127C77.8919 109.906 79.9623 107.668 81.9509 105.485C84.3098 102.899 86.6688 100.318 89.0278 97.7331C87.6748 95.5808 85.386 94.0172 82.8828 93.5532Z" fill="#DF8D6D"/>
<path d="M91.1216 93.9704C91.0163 93.0112 90.2521 92.2119 89.3514 91.8649C88.4507 91.5178 87.4408 91.5685 86.5011 91.7947C85.1793 92.1105 83.9823 92.7539 82.8828 93.5532C85.386 94.0211 87.6748 95.5808 89.0278 97.7331C89.1994 97.5459 89.3709 97.3588 89.5424 97.1677C90.369 96.2592 91.258 95.1869 91.1216 93.9665V93.9704Z" fill="#F0BF6C"/>
<path d="M86.8208 94.1732C87.3316 93.8846 87.9243 93.5805 88.556 93.3777C89.1876 93.1711 89.8427 93.0697 90.4276 93.0034C89.948 92.6642 89.1096 92.5394 88.3649 92.7929C87.6124 93.0268 87.008 93.6156 86.8169 94.1732H86.8208Z" fill="#DF8D6D"/>
<path d="M85.2572 93.3933C85.6472 93.1204 86.0878 92.7929 86.5518 92.5043C87.0158 92.2119 87.5031 91.9623 87.9165 91.7284C87.4525 91.6309 86.8091 91.7479 86.2866 92.0793C85.7563 92.4069 85.3703 92.9293 85.2572 93.3933Z" fill="#DF8D6D"/>
<path d="M31.8858 82.3315C34.7555 77.5355 36.015 71.9637 36.9468 66.4542C37.7345 61.8103 38.2726 56.7999 36.1436 52.5966C35.3482 52.078 34.5021 51.6413 33.6209 51.2943C33.5 51.4698 33.3791 51.6452 33.2622 51.8207C31.3204 54.7567 30.0454 58.0749 28.9068 61.4048C26.7116 67.8111 24.9609 74.3694 23.6625 81.0175C22.9957 84.4253 22.5278 87.6694 22.2432 90.8511C26.2593 89.2954 29.6477 86.0708 31.8897 82.3276L31.8858 82.3315Z" fill="#A64F5A"/>
<path d="M37.2005 55.8563C36.7794 64.3174 34.1592 72.6616 29.6635 79.8477C28.443 81.7973 27.0433 83.7079 25.1054 84.94C22.7698 86.4256 19.7402 86.7687 17.1316 85.8446C14.5231 84.9205 12.3864 82.7487 11.5052 80.1207C10.8033 78.019 10.9866 75.4573 12.5735 73.9132C13.5756 72.9384 14.9637 72.5056 16.2582 71.9792C22.0017 69.6476 26.6923 64.8399 28.8798 59.0419C29.4568 57.5095 29.8701 55.9148 30.5837 54.4409C31.2699 53.0177 33.0791 50.2181 34.9897 50.5417C37.2122 50.92 37.2824 54.1874 37.2005 55.8524V55.8563Z" fill="#59385B"/>
<path d="M34.9895 50.5457C34.97 50.5457 34.9466 50.5457 34.9271 50.5418C35.2234 50.9239 35.4496 51.3684 35.5899 51.8285C35.9213 52.9124 35.8668 54.0744 35.7654 55.2012C35.122 62.3133 32.6929 69.2537 28.7586 75.2155C27.7292 76.7713 26.5907 78.2764 25.1558 79.4734C23.7209 80.6704 21.9741 81.5477 20.1142 81.6959C17.4394 81.9104 14.6983 80.4833 13.3375 78.1711C12.6201 76.9546 12.312 75.5197 12.39 74.1121C10.9746 75.6717 10.8265 78.1087 11.501 80.1246C12.3822 82.7487 14.5151 84.9244 17.1275 85.8485C19.736 86.7726 22.7656 86.4295 25.1012 84.9439C27.0391 83.7118 28.4428 81.8012 29.6593 79.8516C34.1511 72.6694 36.7753 64.3252 37.1964 55.8602C37.2783 54.1914 37.2081 50.9239 34.9856 50.5496L34.9895 50.5457Z" fill="#472948"/>
<path d="M40.0116 48.4518C41.2515 49.0289 42.6786 48.9782 44.0472 48.9353C45.4158 48.8963 46.8546 48.8963 48.0516 49.5592C49.0927 50.1363 49.8335 51.1539 50.8746 51.7232C52.017 52.351 53.4753 52.3588 54.6256 51.7427C54.8712 51.6101 55.1013 51.4464 55.3118 51.2592C54.2785 49.2473 53.0737 47.3835 51.2567 46.0733C48.3986 44.0185 44.4605 43.8196 41.1735 45.0752C40.1519 45.4651 39.1889 45.9798 38.2921 46.5919C38.5728 47.3835 39.2395 48.0814 40.0194 48.444L40.0116 48.4518Z" fill="#A64F5A"/>
<path d="M55.9474 69.1134C55.4054 68.9301 54.8049 69.0081 54.2708 69.2148C53.9978 69.3201 53.7366 69.4565 53.487 69.6086C54.7932 70.248 56.2008 70.712 57.6162 70.9499C57.4915 70.6692 57.355 70.3923 57.1873 70.1389C56.8832 69.6866 56.466 69.2928 55.9474 69.1173V69.1134Z" fill="#472948"/>
<path d="M62.7007 68.1659C62.0417 68.0177 61.3165 68.1425 60.7745 68.548C60.1389 69.0237 59.7997 69.8503 59.8738 70.6379C60.9265 70.1311 61.8779 69.1758 62.7007 68.1659Z" fill="#472948"/>
<path d="M60.7745 68.5519C61.3165 68.1464 62.0418 68.0177 62.7007 68.1698C62.8255 68.0177 62.9503 67.8618 63.0672 67.7058C63.4455 67.2184 63.1374 66.4932 62.5253 66.4503C59.3826 66.2202 56.1853 66.7934 53.3194 68.0918C52.7189 68.3648 52.6955 69.2109 53.2843 69.5072C53.3506 69.5423 53.4208 69.5735 53.4871 69.6047C53.7366 69.4526 53.9978 69.3161 54.2708 69.2109C54.805 69.0081 55.4054 68.9301 55.9474 69.1095C56.466 69.2811 56.8832 69.6788 57.1873 70.1311C57.3589 70.3845 57.4954 70.6613 57.6162 70.9421C57.7059 70.9577 57.7956 70.9733 57.8853 70.9889C58.5793 71.0903 59.2422 70.9421 59.8699 70.6379C59.7998 69.8503 60.1351 69.0237 60.7707 68.548L60.7745 68.5519Z" fill="#59385B"/>
<path d="M61.1177 89.2603C60.8993 88.1061 60.5016 86.9988 59.8738 86.0006C58.7275 84.1719 56.8559 82.8111 54.7621 82.2847C52.6682 81.7583 50.3755 82.0741 48.5039 83.1464C47.8411 83.5246 47.2211 84.012 46.8273 84.6632C47.5759 85.4937 48.4416 86.2228 49.3812 86.8155C49.9817 87.1937 50.6134 87.5212 51.2606 87.8059C51.3308 89.8217 52.8749 91.4984 52.9256 93.5103C52.9529 94.5592 52.8476 95.6159 52.9685 96.6608C53.0893 97.7058 53.4792 98.7742 54.2981 99.4331C55.1793 100.143 56.4543 100.252 57.5149 99.8581C58.5754 99.4643 59.4293 98.6182 59.9947 97.6395C60.564 96.6608 60.8681 95.5496 61.0709 94.4383C61.3789 92.7383 61.4413 90.9486 61.1177 89.2603Z" fill="#CC6164"/>
<path d="M57.4641 94.9803C57.9086 94.2239 58.2829 93.253 58.4662 92.1651C58.6495 91.0772 58.6417 89.8841 58.4233 88.7261C58.2011 87.568 57.7683 86.4568 57.199 85.5132C56.6297 84.5696 55.924 83.8014 55.2338 83.2634C55.7251 83.9925 56.2281 84.8464 56.6453 85.8017C57.0625 86.7531 57.3978 87.8059 57.6045 88.882C57.8072 89.9582 57.8813 91.0577 57.8423 92.0988C57.8072 93.1399 57.6513 94.1186 57.4641 94.9764V94.9803Z" fill="#A34262"/>
<path d="M22.7696 109.579C22.7384 110.819 22.6877 112.292 22.9762 113.501C20.4028 111.965 17.8294 108.616 17.42 105.648C17.0145 102.677 17.7553 99.6281 19.1317 96.965C20.5081 94.3019 22.5006 92.0014 24.6685 89.9348C27.4486 87.2834 30.5562 84.9673 33.8939 83.0645C34.6308 82.6434 35.6563 82.2808 36.2294 82.9047C36.5804 83.2868 36.5648 83.9028 36.3269 84.3668C36.0891 84.8308 35.6797 85.1779 35.2819 85.5093L28.9731 90.7692C31.57 89.272 34.3773 88.0476 37.1379 86.874C37.598 86.679 38.0698 86.488 38.5689 86.4802C39.068 86.4724 39.6022 86.6946 39.8245 87.1391C40.0272 87.5446 39.9297 88.0554 39.688 88.4414C39.4462 88.8275 39.0797 89.1199 38.721 89.3967C35.8785 91.5997 32.884 93.6039 29.7647 95.3936C32.2874 94.0484 34.9778 93.0697 37.6994 92.1963C38.4831 91.9429 39.4696 91.7596 40.0272 92.364C40.4444 92.8163 40.4171 93.5493 40.1169 94.0874C39.8167 94.6255 39.3098 95.0115 38.8068 95.3663C36.1749 97.2262 33.3051 98.7508 30.2871 99.8893C31.8858 99.3668 33.5546 99.0315 35.1533 98.5051C35.6641 98.3375 36.1904 98.1698 36.7285 98.201C37.2666 98.2361 37.8242 98.5168 38.0191 99.0198C38.2297 99.554 37.9685 100.178 37.5435 100.56C37.1184 100.946 36.5648 101.141 36.0228 101.328C33.387 102.241 30.7511 103.157 28.1153 104.069C26.7662 107.434 22.7618 109.579 22.7618 109.579H22.7696Z" fill="#F2C9AD"/>
<path d="M37.8047 99.8074C37.1301 100.4 36.2645 100.708 35.4106 100.985C32.8762 101.808 30.1351 102.56 27.507 102.993C27.0976 103.902 26.618 104.791 25.9474 105.524C25.2767 106.261 24.3994 106.838 23.4168 107.005C22.0209 107.243 20.5627 106.608 19.6035 105.563C18.6443 104.521 18.1374 103.122 17.9424 101.718C17.8762 101.231 17.845 100.739 17.8372 100.248C17.3537 102.007 17.1743 103.839 17.42 105.641C17.8255 108.612 20.4028 111.957 22.9762 113.493C22.6877 112.285 22.7384 110.811 22.7696 109.571C22.7696 109.571 26.774 107.426 28.1231 104.061C30.7589 103.149 33.3947 102.233 36.0306 101.32C36.5725 101.133 37.1262 100.934 37.5512 100.552C37.8476 100.283 38.0581 99.8971 38.0932 99.5072C38.0035 99.6125 37.91 99.7139 37.8047 99.8035V99.8074Z" fill="#EBA58E"/>
<path d="M71.3725 118.679C63.5976 117.022 55.0584 118.726 48.5313 123.261C47.1822 124.197 45.8837 125.281 45.139 126.766C44.9635 127.113 44.9558 127.538 45.1819 127.854C45.6108 128.454 46.3711 128.166 46.9404 127.866C48.9056 126.829 50.8708 125.787 52.8359 124.75C50.4107 126.123 48.2427 127.975 46.2269 129.905C45.6732 130.435 45.1195 131.016 45.0493 131.823C45.0181 132.202 45.1351 132.591 45.4081 132.857C46.0826 133.508 47.0613 133.052 47.7982 132.603C50.8513 130.739 53.9082 128.879 56.9612 127.016C54.8479 128.856 52.8125 130.923 50.6992 132.763C50.3522 133.067 49.9973 133.379 49.7595 133.773C49.5217 134.171 49.4164 134.674 49.5957 135.099C49.8414 135.676 50.5432 135.941 51.1632 135.871C51.7832 135.8 52.3407 135.469 52.871 135.134C55.3821 133.551 57.7644 131.757 59.9792 129.784C58.5911 131.316 57.4837 133.239 56.4153 135.013C56.2048 135.364 55.9942 135.734 55.9513 136.144C55.9084 136.553 56.0839 137.013 56.4582 137.181C56.969 137.411 57.5344 137.029 57.9477 136.654C59.7725 135.017 61.34 133.091 62.576 130.969C63.6249 130.981 64.6776 130.923 65.7187 130.786C68.2726 130.451 70.7447 129.636 72.858 128.17L73.014 128.244C73.5287 127.873 74.0395 127.562 74.5347 127.32C77.6813 125.663 82.8983 123.6 86.7078 122.781L71.3686 118.683L71.3725 118.679Z" fill="#F2C9AD"/>
<path d="M134.539 88.6091C134.406 88.5896 134.562 87.2756 134.535 85.1584C134.527 84.8933 134.523 84.6164 134.515 84.3279C134.508 84.0393 134.476 83.7391 134.457 83.4311C134.43 82.8111 134.336 82.1522 134.254 81.462C134.051 80.0817 133.747 78.5805 133.291 77.0365C132.819 75.5002 132.246 74.077 131.657 72.8137C131.341 72.1937 131.061 71.5933 130.741 71.0591C130.585 70.79 130.449 70.521 130.296 70.2793C130.144 70.0336 129.996 69.7997 129.856 69.5774C128.713 67.7955 127.859 66.7856 127.961 66.6959C128.023 66.6336 129.037 67.5187 130.324 69.2577C130.48 69.476 130.647 69.7061 130.819 69.9478C130.99 70.1896 131.143 70.4547 131.314 70.7238C131.665 71.254 131.977 71.8584 132.32 72.4901C132.963 73.769 133.576 75.2273 134.059 76.8103C134.527 78.3973 134.819 79.953 134.987 81.3723C135.049 82.0859 135.12 82.7643 135.12 83.3999C135.124 83.7196 135.143 84.0237 135.135 84.3201C135.124 84.6164 135.112 84.8971 135.104 85.1701C134.987 87.3302 134.632 88.6286 134.543 88.6091H134.539Z" fill="#F8FFFA"/>
<path d="M136.414 78.8769C136.305 78.9003 135.853 76.5569 134.675 73.8899C133.513 71.2112 132.098 69.2928 132.191 69.2265C132.226 69.1992 132.628 69.6437 133.178 70.443C133.728 71.2384 134.41 72.3926 135.007 73.7495C135.599 75.1064 135.985 76.3892 136.196 77.3328C136.406 78.2764 136.465 78.873 136.418 78.8808L136.414 78.8769Z" fill="#F8FFFA"/>
<path d="M27.8815 145.314C27.7996 145.392 26.5987 144.32 24.9922 142.285C24.7934 142.027 24.5867 141.758 24.3723 141.478C24.1578 141.197 23.959 140.889 23.7367 140.573C23.2922 139.953 22.8711 139.255 22.4188 138.522C21.5532 137.04 20.6876 135.356 19.9272 133.527C19.1825 131.691 18.6132 129.885 18.1921 128.221C18.0011 127.382 17.8061 126.591 17.6891 125.838C17.6267 125.464 17.5527 125.101 17.5059 124.75C17.463 124.399 17.4201 124.064 17.3811 123.74C17.0926 121.163 17.1939 119.557 17.307 119.553C17.4591 119.545 17.5995 121.132 18.0557 123.639C18.1141 123.951 18.1765 124.279 18.2389 124.622C18.3052 124.965 18.3949 125.316 18.4729 125.678C18.6249 126.411 18.8394 127.179 19.0499 127.994C19.51 129.609 20.091 131.367 20.8201 133.161C21.5649 134.95 22.3837 136.608 23.1908 138.081C23.6119 138.807 23.9979 139.509 24.4074 140.136C24.6062 140.452 24.7895 140.764 24.9844 141.053C25.1794 141.341 25.3665 141.618 25.542 141.883C26.9808 143.989 27.9946 145.213 27.8815 145.314Z" fill="#F8FFFA"/>
<path d="M17.8529 136.615C17.814 136.643 17.385 136.14 16.8197 135.231C16.2543 134.327 15.5758 133.005 15.0456 131.457C14.5192 129.909 14.2501 128.447 14.1449 127.386C14.0396 126.322 14.0708 125.663 14.1176 125.659C14.2462 125.647 14.3671 128.287 15.4199 131.328C16.4454 134.377 17.9582 136.545 17.849 136.611L17.8529 136.615Z" fill="#F8FFFA"/>
<path d="M15.2834 67.1287C15.3263 67.2184 14.4373 67.6473 13.2247 68.6338C12.0159 69.6086 10.5148 71.2228 9.53609 73.3829C8.5613 75.547 8.33905 77.7383 8.40924 79.2902C8.47162 80.8537 8.73677 81.8051 8.63929 81.8324C8.5808 81.8558 8.16359 80.9317 7.99203 79.3213C7.81267 77.7266 7.96863 75.4144 8.99801 73.1412C10.0274 70.868 11.6572 69.2187 12.9712 68.3024C14.293 67.3666 15.26 67.0702 15.2834 67.1287Z" fill="#F8FFFA"/>
<path d="M9.29821 68.1893C9.34889 68.2322 8.93558 68.7391 8.3897 69.632C8.11287 70.0765 7.82433 70.6263 7.53969 71.254C7.26675 71.8857 7.00161 72.5992 6.79496 73.3635C6.5961 74.1316 6.47133 74.8802 6.39334 75.5665C6.33096 76.2527 6.30756 76.8766 6.32706 77.3991C6.35435 78.4441 6.46353 79.0913 6.39724 79.103C6.35435 79.1147 6.1477 78.4792 6.04632 77.4147C5.99173 76.8805 5.98393 76.2449 6.03072 75.5353C6.08921 74.8295 6.20618 74.0575 6.41284 73.2621C6.62729 72.4706 6.90803 71.7414 7.21216 71.102C7.52409 70.4664 7.84772 69.9127 8.15966 69.4799C8.77572 68.6065 9.27091 68.1581 9.3021 68.1893H9.29821Z" fill="#F8FFFA"/>
<path d="M124.853 151.311C124.771 151.225 125.637 150.325 126.916 148.777C127.559 148.005 128.284 147.061 129.053 145.981C129.809 144.893 130.597 143.673 131.349 142.343C132.09 141.01 132.726 139.7 133.256 138.491C133.774 137.274 134.207 136.159 134.527 135.212C135.178 133.313 135.498 132.104 135.615 132.131C135.705 132.147 135.568 133.402 135.038 135.372C134.777 136.354 134.394 137.508 133.899 138.764C133.392 140.012 132.765 141.361 132.008 142.721C131.24 144.078 130.417 145.314 129.618 146.398C128.807 147.474 128.023 148.402 127.318 149.139C125.914 150.617 124.912 151.385 124.853 151.319V151.311Z" fill="#797C99"/>
<path d="M130.686 148.664C130.573 148.574 132.57 146.324 134.215 143.045C135.888 139.781 136.523 136.842 136.664 136.877C136.718 136.888 136.629 137.637 136.321 138.814C136.013 139.992 135.459 141.587 134.621 143.248C133.778 144.905 132.815 146.297 132.047 147.241C131.279 148.184 130.729 148.699 130.686 148.66V148.664Z" fill="#797C99"/>
</g>
</svg>
