<svg width="775" height="339" viewBox="0 0 775 339" fill="none" xmlns="http://www.w3.org/2000/svg">
<path d="M194 74.9996L189.873 76.793L189.873 76.793L194 74.9996ZM173 191.5L172.74 187.007L172.74 187.007L173 191.5ZM497 23.5L495.772 19.1709L497 23.5ZM628.313 26.0806C629.739 28.1166 632.545 28.6118 634.581 27.1865C636.617 25.7613 637.112 22.9554 635.687 20.9194L628.313 26.0806ZM606.991 0.610515C604.567 0.0631052 602.158 1.58458 601.611 4.00883C601.063 6.43307 602.585 8.84207 605.009 9.38948L606.991 0.610515ZM241.943 203.227C239.462 203.083 237.335 204.978 237.191 207.46C237.048 209.941 238.943 212.068 241.424 212.212L241.943 203.227ZM275.147 202.279C277.079 200.716 277.378 197.882 275.815 195.95C274.252 194.018 271.418 193.719 269.486 195.282L275.147 202.279ZM5.74862 338.063C48.0799 305.407 111.786 249.309 155.032 194.184L147.951 188.629C105.348 242.934 42.2831 298.512 0.251385 330.937L5.74862 338.063ZM155.032 194.184C172.281 172.198 186.434 150.167 194.625 129.688C202.787 109.281 205.3 89.7125 198.127 73.2063L189.873 76.793C195.658 90.1075 194.039 106.917 186.269 126.346C178.527 145.702 164.947 166.965 147.951 188.629L155.032 194.184ZM198.127 73.2063C193.439 62.4178 186.742 55.4924 178.499 52.4198C170.319 49.3709 161.434 50.4218 152.929 53.8947C136.059 60.7837 119.129 77.7792 107.656 97.2178C96.2098 116.613 89.488 139.657 94.6957 158.97C97.3376 168.767 103.028 177.464 112.44 183.983C121.783 190.455 134.546 194.615 151.146 195.894L151.837 186.92C136.315 185.725 125.229 181.893 117.565 176.585C109.97 171.325 105.496 164.454 103.385 156.627C99.0881 140.691 104.509 120.258 115.407 101.792C126.28 83.3701 141.897 68.1212 156.331 62.2268C163.479 59.308 169.935 58.8325 175.355 60.853C180.712 62.8499 185.874 67.5898 189.873 76.793L198.127 73.2063ZM151.146 195.894C157.854 196.41 165.212 196.458 173.26 195.992L172.74 187.007C165.039 187.453 158.09 187.402 151.837 186.92L151.146 195.894ZM173.26 195.992C256.597 191.165 309.606 156.72 355.992 119.746C402.565 82.6233 441.602 43.8966 498.228 27.8291L495.772 19.1709C436.898 35.8761 395.935 76.3993 350.383 112.708C304.644 149.166 253.403 182.335 172.74 187.007L173.26 195.992ZM498.228 27.8291C542.446 15.2826 573.637 22.6412 597.548 36.8235C621.838 51.2308 638.751 72.6532 654.601 89.4622C662.358 97.6881 670.07 105.013 678.259 109.132C686.775 113.414 695.827 114.233 705.656 109.546C715.119 105.033 724.949 95.5811 735.918 80.3373C746.944 65.0149 759.42 43.4096 774.03 14.0021L765.97 9.99786C751.455 39.2154 739.228 60.3289 728.613 75.0806C717.941 89.9111 709.193 97.8885 701.782 101.423C694.735 104.783 688.616 104.266 682.303 101.091C675.664 97.7524 668.892 91.4994 661.149 83.2878C645.999 67.2218 627.849 44.3317 602.139 29.0827C576.051 13.6088 542.304 5.96745 495.772 19.1709L498.228 27.8291ZM635.687 20.9194C633.695 18.0745 630.007 13.8405 625.167 9.92627C620.337 6.01927 614.094 2.21427 606.991 0.610515L605.009 9.38948C610.306 10.5857 615.313 13.5307 619.508 16.9237C623.693 20.3095 626.805 23.9255 628.313 26.0806L635.687 20.9194ZM241.424 212.212C244.891 212.412 250.5 212.142 256.571 210.77C262.631 209.401 269.486 206.859 275.147 202.279L269.486 195.282C265.264 198.699 259.85 200.802 254.587 201.991C249.336 203.178 244.57 203.378 241.943 203.227L241.424 212.212Z" fill="white"/>
</svg>
