<svg width="163" height="206" viewBox="0 0 163 206" fill="none" xmlns="http://www.w3.org/2000/svg">
<g clip-path="url(#clip0_356_13241)">
<path d="M65.5 121C94.4949 121 118 97.4949 118 68.5C118 39.5051 94.4949 16 65.5 16C36.5051 16 13 39.5051 13 68.5C13 97.4949 36.5051 121 65.5 121Z" fill="#44786C" fill-opacity="0.2"/>
<path d="M11.8498 146.262C11.9679 146.37 10.925 147.57 9.53294 149.696C9.36078 149.961 9.18369 150.242 8.99677 150.532C8.80985 150.822 8.6426 151.142 8.45568 151.461C8.06707 152.096 7.71782 152.814 7.33414 153.557C6.61104 155.067 5.90761 156.769 5.33209 158.609C4.77132 160.458 4.39747 162.259 4.1466 163.912C4.04822 164.743 3.93016 165.53 3.89573 166.273C3.87113 166.646 3.83178 167.001 3.82194 167.35C3.81211 167.694 3.80227 168.029 3.79735 168.344C3.758 170.882 3.94492 172.461 3.78751 172.485C3.68421 172.505 3.25625 170.951 3.11852 168.353C3.10868 168.029 3.09393 167.689 3.08409 167.335C3.07425 166.981 3.09884 166.612 3.10376 166.228C3.10376 165.461 3.19723 164.649 3.27593 163.793C3.48745 162.087 3.84654 160.222 4.42207 158.319C5.01727 156.42 5.76496 154.678 6.55201 153.149C6.97013 152.396 7.35381 151.673 7.78177 151.038C7.98837 150.719 8.18021 150.399 8.38681 150.114C8.59833 149.828 8.79509 149.553 8.98693 149.292C10.5561 147.221 11.7859 146.173 11.8646 146.252L11.8498 146.262Z" fill="#797C99"/>
<path d="M5.71589 149.651C5.7946 149.715 5.15512 150.566 4.28445 152.032C3.84666 152.76 3.36951 153.66 2.89728 154.679C2.43489 155.702 1.98234 156.853 1.60358 158.092C1.23465 159.337 0.969021 160.542 0.782097 161.649C0.609931 162.761 0.506631 163.769 0.46236 164.62C0.368898 166.322 0.432846 167.384 0.324627 167.394C0.250841 167.404 0.0294846 166.347 0.00488937 164.605C-0.00986774 163.735 0.0491607 162.702 0.191813 161.555C0.349222 160.414 0.605012 159.17 0.983778 157.896C1.3773 156.627 1.85937 155.451 2.36111 154.413C2.87761 153.385 3.40394 152.49 3.90077 151.776C4.88949 150.345 5.66178 149.592 5.71589 149.637V149.651Z" fill="#797C99"/>
<path d="M30.8473 82.2903C30.9556 82.428 29.5782 83.5643 27.6106 85.6352C27.3696 85.8959 27.1138 86.1714 26.8482 86.4567C26.5825 86.742 26.3317 87.0617 26.0562 87.3765C25.5003 88.0013 24.9642 88.7194 24.3886 89.4622C23.2769 90.9773 22.1406 92.7088 21.0978 94.6124C20.0796 96.5259 19.2581 98.4296 18.6039 100.196C18.3038 101.086 17.9939 101.927 17.7824 102.739C17.6692 103.142 17.5413 103.526 17.4479 103.905C17.3544 104.283 17.2659 104.647 17.1823 104.992C16.5329 107.771 16.346 109.547 16.1689 109.537C16.0509 109.537 15.9673 107.722 16.4346 104.844C16.4985 104.485 16.5674 104.111 16.6362 103.718C16.71 103.324 16.8182 102.926 16.9166 102.507C17.0986 101.666 17.3839 100.796 17.6643 99.8709C18.2841 98.041 19.0958 96.0734 20.1435 94.1058C21.2109 92.148 22.4063 90.3821 23.5918 88.8621C24.2066 88.1193 24.7822 87.4011 25.3823 86.7863C25.6774 86.4764 25.9529 86.1615 26.2382 85.8861C26.5284 85.6106 26.8039 85.3499 27.0695 85.099C29.2142 83.1216 30.7736 82.1968 30.8424 82.2952L30.8473 82.2903Z" fill="#797C99"/>
<path d="M23.5128 85.7931C23.5719 85.8669 22.834 86.4768 21.7617 87.5787C21.2255 88.1247 20.6204 88.8134 19.9957 89.6004C19.3759 90.4022 18.7414 91.3122 18.1462 92.3108C17.5608 93.3192 17.0738 94.3178 16.6754 95.2475C16.2917 96.1821 15.9818 97.0429 15.7654 97.7759C15.3226 99.2417 15.1456 100.186 15.0521 100.171C14.9881 100.162 15.0177 99.1925 15.3669 97.6676C15.5391 96.9052 15.8096 96.0148 16.1786 95.0458C16.5573 94.0817 17.0443 93.0487 17.6444 92.0157C18.2544 90.9876 18.9234 90.0628 19.5776 89.261C20.2466 88.469 20.891 87.7951 21.4764 87.2786C22.6372 86.2309 23.4735 85.7341 23.5079 85.7882L23.5128 85.7931Z" fill="#797C99"/>
<path d="M162.21 188.187C162.274 188.231 162.063 188.639 161.625 189.353C161.512 189.53 161.389 189.727 161.256 189.943C161.113 190.155 160.941 190.366 160.759 190.607C160.39 191.074 159.997 191.63 159.475 192.166C159.219 192.442 158.954 192.732 158.673 193.032C158.393 193.327 158.068 193.608 157.749 193.908C157.119 194.528 156.366 195.098 155.584 195.713C153.981 196.889 152.106 198.03 150.016 198.979C147.911 199.899 145.805 200.529 143.862 200.932C142.883 201.099 141.954 201.276 141.073 201.331C140.635 201.365 140.212 201.424 139.799 201.434C139.391 201.439 138.997 201.444 138.623 201.449C137.876 201.478 137.197 201.399 136.607 201.36C136.311 201.335 136.036 201.321 135.785 201.286C135.534 201.242 135.308 201.203 135.101 201.168C134.28 201.016 133.832 200.898 133.847 200.824C133.857 200.75 134.324 200.721 135.146 200.74C135.352 200.745 135.579 200.755 135.829 200.76C136.08 200.76 136.351 200.745 136.641 200.74C137.221 200.721 137.881 200.74 138.609 200.662C138.973 200.632 139.351 200.607 139.75 200.573C140.143 200.544 140.552 200.465 140.98 200.411C141.831 200.317 142.721 200.111 143.665 199.924C145.535 199.476 147.551 198.846 149.583 197.956C151.6 197.041 153.42 195.964 155.004 194.877C155.771 194.301 156.524 193.78 157.158 193.204C157.483 192.924 157.813 192.673 158.098 192.398C158.383 192.122 158.659 191.861 158.924 191.606C159.47 191.119 159.893 190.612 160.297 190.194C160.493 189.982 160.685 189.791 160.853 189.604C161.015 189.412 161.162 189.24 161.29 189.082C161.827 188.457 162.156 188.133 162.22 188.172L162.21 188.187Z" fill="#797C99"/>
<path d="M158.787 197.774C158.841 197.823 158.157 198.704 156.78 199.86C156.096 200.44 155.22 201.06 154.202 201.675C153.174 202.275 152.003 202.856 150.714 203.343C149.426 203.815 148.156 204.139 146.986 204.356C145.815 204.553 144.748 204.656 143.847 204.661C142.052 204.685 140.96 204.464 140.965 204.395C140.975 204.287 142.072 204.336 143.823 204.194C144.698 204.13 145.731 203.982 146.868 203.756C147.999 203.51 149.229 203.18 150.478 202.718C151.728 202.246 152.874 201.695 153.892 201.144C154.9 200.573 155.776 200.007 156.484 199.486C157.901 198.453 158.703 197.695 158.777 197.774H158.787Z" fill="#797C99"/>
<path d="M155.614 105.764C155.456 105.764 155.505 104.185 155.048 101.725C154.605 99.2806 153.528 95.9357 151.344 92.8318C149.16 89.7279 146.381 87.5832 144.226 86.3436C142.067 85.0843 140.566 84.5973 140.615 84.4448C140.64 84.3464 142.229 84.6071 144.546 85.7533C146.848 86.8797 149.834 89.0343 152.116 92.2858C154.403 95.5372 155.427 99.074 155.707 101.622C156.002 104.19 155.712 105.774 155.609 105.764H155.614Z" fill="#797C99"/>
<path d="M158.314 96.1816C158.206 96.2062 157.98 95.1535 157.321 93.5844C157.153 93.1908 156.966 92.7678 156.725 92.33C156.509 91.8775 156.224 91.4298 155.938 90.9478C155.328 90.0082 154.581 89.0244 153.69 88.0849C152.785 87.1601 151.831 86.378 150.916 85.7287C150.444 85.4237 150.006 85.1187 149.563 84.8875C149.135 84.6317 148.717 84.43 148.329 84.248C146.784 83.5299 145.746 83.2642 145.771 83.156C145.781 83.0921 146.868 83.1954 148.506 83.8299C148.914 83.9922 149.357 84.1742 149.809 84.4202C150.277 84.6416 150.744 84.9367 151.236 85.2368C152.205 85.8762 153.208 86.678 154.143 87.6373C155.068 88.6112 155.825 89.6442 156.43 90.6329C156.716 91.1396 156.991 91.6168 157.193 92.0939C157.419 92.5563 157.586 93.0088 157.734 93.422C158.304 95.0847 158.368 96.1718 158.304 96.1816H158.314Z" fill="#797C99"/>
<g clip-path="url(#clip1_356_13241)">
<path d="M156 133.728C156 133.728 156.091 151.864 124.764 152.317V128.655C124.764 128.655 147.482 121.252 156 133.728Z" fill="#3870C2"/>
<path d="M142.67 120.014C141.267 118.547 130.876 137.233 127.335 144.722C127.052 145.33 126.839 164.991 127.297 169.723C138.499 174.593 148.223 178.636 152.367 189.288C157.136 177.558 149.295 126.949 142.67 120.014Z" fill="#FFB2A2"/>
<path d="M6 156.446C6 156.446 7.71758 167.205 27.3364 168.235V143.97C27.3364 143.97 6.53341 145.346 6 156.446Z" fill="#3870C2"/>
<path d="M61.2399 78.9947L62.5414 63.0778L84.7419 61.6162L86.4648 76.845L120.374 82.0991C120.374 82.0991 130.183 82.6325 134.573 92.9433C138.963 103.254 142.318 111.533 142.318 111.533C142.318 111.533 154.453 125.732 156 133.733C156 133.733 137.411 128.826 127.084 146.124C127.084 146.124 131.351 186.93 130.284 206.293L28.9366 207.573V150.258C28.9366 150.258 11.6808 148.967 6 156.451C7.01154 147.119 9.58465 138.024 13.6118 129.546C14.8415 122.041 15.6624 114.475 16.0708 106.881C16.3001 101.771 18.8925 96.9812 22.237 93.8235C25.8588 90.4096 30.7715 88.4574 35.5242 86.9798L61.2399 78.9787V78.9947Z" fill="#1D232C"/>
<path d="M42.8745 84.6966C44.6241 87.9664 52.8919 100.166 78.2715 98.5279C95.0686 97.4611 102.702 87.8598 106.169 79.8906" stroke="#FFF7F4" stroke-width="0.517407" stroke-miterlimit="10"/>
<path d="M121.014 209.536C118.708 209.51 116.428 209.048 114.293 208.176C107.145 205.354 102.27 200.644 98.3598 196.857C91.8309 190.542 89.2386 188.541 82.6723 192.174C81.8037 192.651 80.7812 192.763 79.8299 192.486C78.8786 192.209 78.0763 191.565 77.5996 190.696C77.1228 189.828 77.0106 188.805 77.2877 187.854C77.5648 186.903 78.2085 186.1 79.0771 185.624C90.8121 179.137 97.5864 185.693 103.566 191.491C107.358 195.161 111.284 198.959 117.051 201.231C120.192 202.469 122.737 202.357 125.052 200.879C130.732 197.252 133.303 186.477 133.442 184.397C133.449 183.406 133.849 182.46 134.555 181.764C135.26 181.069 136.212 180.682 137.203 180.69C138.193 180.697 139.14 181.097 139.835 181.802C140.53 182.507 140.917 183.46 140.91 184.45C140.91 186.194 138.494 200.767 129.474 206.907C126.989 208.628 124.036 209.545 121.014 209.536Z" fill="#F2B864"/>
<path d="M109.012 176.155C109.012 176.155 104.366 187.448 106.179 192.158C107.993 196.868 101.635 204.853 98.7117 213.387C95.7886 221.922 95.3779 225.368 100.045 225.368C104.713 225.368 111.428 208.299 115.242 204.49C119.056 200.681 118.821 199.364 118.821 196.318C118.821 193.272 121.259 188.146 121.259 188.146L109.012 176.155Z" fill="#F2B864"/>
<path d="M100.856 177.852C100.856 177.852 101.72 193.32 99.6827 200.761C97.6451 208.203 95.6501 215.286 102.094 212.838C108.537 210.39 112.351 192.152 112.351 192.152L109.535 177.852H100.856Z" fill="#F2B864"/>
<path d="M109.535 109.58C95.9914 96.0371 91.7348 98.6775 91.7348 98.6775L73.7749 110.455C72.0124 114.647 70.0014 118.729 67.7527 122.681C68.167 123.636 68.705 124.533 69.3529 125.348C72.3821 129.468 74.8903 133.947 76.8206 138.683C76.986 138.683 77.146 138.683 77.2954 138.683C83.0189 138.683 90.8066 161.678 90.8066 161.678C90.8066 161.678 121.899 208.197 135.997 172.88C145.225 149.762 134.397 140.187 124.795 128.65C122.022 125.375 111.695 111.746 109.535 109.58Z" fill="#F2B864"/>
<path d="M53.6761 199.134C63.6402 194.275 75.7859 183.82 80.0105 174.598H28.9792V202.479C28.9792 202.479 42.2078 204.73 53.6761 199.134Z" fill="#030303"/>
<path d="M78.8049 95.0027C91.6548 94.176 97.8796 86.8256 100.856 79.0751L86.454 76.8402L84.7311 61.6113L62.5413 63.0729L61.2398 78.9898L47.5525 83.2571C50.5076 88.0578 58.6047 96.3096 78.8049 94.9921V95.0027Z" fill="#FFB2A2"/>
<path d="M84.7419 61.6113L62.5414 63.0729L61.5759 75.2773C61.5759 75.2773 81.2587 76.3654 84.7419 61.6113Z" fill="#030303"/>
<path d="M63.1867 54.5329C63.3698 53.7624 63.3201 52.9549 63.0439 52.2127C62.7677 51.4705 62.2774 50.8269 61.6351 50.3636C60.9928 49.9002 60.2275 49.6379 59.436 49.6099C58.6446 49.5819 57.8626 49.7894 57.1892 50.2062C56.5158 50.623 55.9812 51.2302 55.6532 51.9511C55.3252 52.6719 55.2185 53.4739 55.3467 54.2554C55.4748 55.0369 55.8321 55.7628 56.3731 56.3412C56.9142 56.9195 57.6147 57.3242 58.386 57.504C59.4165 57.7443 60.5001 57.5666 61.3998 57.0098C62.2996 56.4529 62.9421 55.5624 63.1867 54.5329Z" fill="#FFB2A1"/>
<path d="M90.0333 56.3993C90.5847 55.8333 90.9559 55.1164 91.0999 54.3394C91.2438 53.5624 91.1542 52.7602 90.8422 52.0341C90.5302 51.3081 90.0099 50.6909 89.3472 50.2606C88.6844 49.8302 87.9089 49.6061 87.1187 49.6166C86.3285 49.627 85.5592 49.8715 84.908 50.3192C84.2569 50.7669 83.7531 51.3977 83.4604 52.1317C83.1677 52.8658 83.0993 53.6701 83.2638 54.443C83.4283 55.216 83.8183 55.9227 84.3845 56.474C85.1435 57.213 86.165 57.6203 87.2243 57.6063C88.2836 57.5923 89.294 57.1582 90.0333 56.3993Z" fill="#FFB2A1"/>
<path d="M61.7573 54.7087C61.7573 54.7087 55.6071 53.4499 54.0069 44.3232C52.572 36.0074 59.9277 34.4818 59.9277 34.4818C59.9277 34.4818 61.7573 23.819 72.5055 24.0003C83.2537 24.1817 91.9483 30.7266 91.7082 40.0399C91.4362 51.887 84.1445 54.7087 84.1445 54.7087H61.7413H61.7573Z" fill="#2B2C30"/>
<path d="M54.4016 46.1045C56.4126 53.6149 61.7573 54.7084 61.7573 54.7084H84.1605C84.1605 54.7084 91.4522 51.8867 91.7243 40.0396C91.7704 38.2309 91.4597 36.4308 90.8098 34.7421C90.16 33.0535 89.1838 31.5095 87.9371 30.1982C86.6355 43.3254 60.9412 35.2016 60.9412 35.2016C60.9412 35.2016 61.3093 37.57 64.3284 39.4689L60.8772 45.203C58.7489 48.3342 56.3486 47.47 54.4016 46.1045Z" fill="#26282C"/>
<path d="M72.8735 41.2717C69.9289 41.3239 67.0108 40.7075 64.3389 39.4688C63.0962 40.663 62.1074 42.096 61.4319 43.6817C60.7564 45.2674 60.408 46.9731 60.4077 48.6967V60.7198C60.3729 62.4289 60.6794 64.1278 61.3094 65.717C61.9394 67.3062 62.8801 68.7537 64.0766 69.9747C65.273 71.1958 66.701 72.1658 68.277 72.8281C69.853 73.4903 71.5454 73.8314 73.2549 73.8314C74.9644 73.8314 76.6567 73.4903 78.2327 72.8281C79.8087 72.1658 81.2367 71.1958 82.4332 69.9747C83.6296 68.7537 84.5703 67.3062 85.2003 65.717C85.8303 64.1278 86.1368 62.4289 86.102 60.7198V48.6967C86.1031 45.3775 84.8117 42.1882 82.5015 39.8048C79.6744 40.0128 77.6368 41.2823 72.9001 41.2717H72.8735Z" fill="#FFB2A2"/>
<path d="M75.2366 62.6884C75.1337 63.1846 74.85 63.6247 74.4407 63.9234C74.0315 64.2221 73.5258 64.3581 73.0219 64.3049C72.518 64.2517 72.0519 64.0132 71.714 63.6356C71.3761 63.2581 71.1905 62.7684 71.1934 62.2617L75.2366 62.6884Z" fill="#030303"/>
<path d="M76.4101 59.8031L74.7032 59.6378C74.2481 59.8302 73.7523 59.9061 73.2605 59.8586C72.7687 59.8111 72.2966 59.6417 71.8868 59.3658L71.012 59.2857C70.5393 59.2394 70.0621 59.2869 69.6078 59.4256C69.1536 59.5642 68.7312 59.7912 68.3649 60.0935C67.9986 60.3959 67.6957 60.7676 67.4735 61.1874C67.2513 61.6071 67.1142 62.0666 67.0701 62.5395L73.4176 62.6249L79.6639 63.7397C79.7094 63.2674 79.6614 62.7908 79.5224 62.3372C79.3834 61.8835 79.1563 61.4618 78.854 61.0961C78.5517 60.7304 78.1803 60.4279 77.7609 60.2061C77.3415 59.9842 76.8825 59.8473 76.4101 59.8031Z" fill="#26282C"/>
<path d="M71.6414 59.2051C72.1787 59.6444 72.8515 59.8845 73.5456 59.8845C74.2398 59.8845 74.9125 59.6444 75.4499 59.2051" stroke="#030303" stroke-width="0.517407" stroke-linecap="round" stroke-linejoin="round"/>
<path d="M13.6703 151.746C13.6703 151.746 12.1981 170.821 23.5544 194.745C23.5544 194.745 45.5895 203.354 65.7257 189.944C76.748 182.586 86.3206 173.262 93.9644 162.436C95.1919 160.661 96.8273 159.207 98.7331 158.195L111.407 151.437C111.765 151.243 112.057 150.948 112.247 150.588C112.436 150.228 112.516 149.82 112.474 149.415L112.09 145.564L113.797 143.063C114.033 142.717 114.16 142.308 114.16 141.889C114.16 141.47 114.033 141.061 113.797 140.716L108.996 133.835C108.996 133.835 109.529 129.167 107.646 127.231L106.868 122.585C106.868 122.585 104.419 122.905 103.192 126.911C101.966 130.917 99.7092 137.696 94.5458 138.337C91.4154 138.712 88.2417 138.468 85.2058 137.616C85.2496 139.977 84.3933 142.265 82.8108 144.017C80.1704 146.924 80.0371 151.442 80.0371 151.442C80.0371 151.442 72.484 156.995 62.7973 158.803C56.087 160.057 46.9231 162.996 46.9231 162.996L45.4989 152.328C29.1072 146.903 13.6703 151.757 13.6703 151.757V151.746Z" fill="#FFB2A2"/>
<path d="M45.4989 152.317C29.1072 146.898 13.6704 151.746 13.6704 151.746C13.5515 154.268 13.605 156.795 13.8304 159.31C24.0239 151.106 45.4989 152.317 45.4989 152.317Z" fill="#030303"/>
<path d="M46.9231 162.964C46.9231 162.964 42.9172 163.935 37.4978 169.738" stroke="#030303" stroke-width="0.773443" stroke-linecap="round" stroke-linejoin="round"/>
<path d="M45.4991 152.317L41.5625 126.244" stroke="#030303" stroke-width="0.773443" stroke-linecap="round" stroke-linejoin="round"/>
<path d="M100.067 143.799C100.067 143.799 105.934 141.047 106.089 138.465C106.244 135.883 107.689 127.21 107.689 127.21" stroke="#030303" stroke-width="0.773443" stroke-linecap="round" stroke-linejoin="round"/>
<path d="M109.012 133.813C109.012 133.813 110.394 141.132 108.665 143.111C107.45 144.476 106.157 145.769 104.793 146.983" stroke="#030303" stroke-width="0.773443" stroke-linecap="round" stroke-linejoin="round"/>
<path d="M112.111 145.538L109.012 149.389" stroke="#030303" stroke-width="0.773443" stroke-linecap="round" stroke-linejoin="round"/>
<path d="M105.998 164.821C106.169 160.516 102.382 157.929 102.382 157.929C100.488 156.382 98.5998 152.339 98.5998 152.339L80.0105 174.63C84.8112 180.14 95.4794 180.14 95.4794 180.14C114.149 193.219 142.297 206.304 151.589 190.808C151.87 190.329 152.116 189.83 152.325 189.315C146.313 163.716 105.998 164.821 105.998 164.821Z" fill="#FFB2A2"/>
<path d="M79.6958 178.817C85.0115 173.863 89.7938 168.365 93.9645 162.415C95.1888 160.63 96.8244 159.167 98.7332 158.147" stroke="#030303" stroke-width="0.773443" stroke-linecap="round" stroke-linejoin="round"/>
<path d="M67.9022 55.4337C68.1479 55.4843 68.4033 55.4577 68.6333 55.3575C68.8633 55.2572 69.0567 55.0883 69.187 54.8739C69.3172 54.6594 69.378 54.4099 69.3609 54.1596C69.3437 53.9093 69.2496 53.6704 69.0914 53.4756C68.9332 53.2809 68.7186 53.1399 68.4771 53.0719C68.2356 53.0039 67.9789 53.0123 67.7423 53.0958C67.5058 53.1794 67.3008 53.3342 67.1556 53.5388C67.0104 53.7434 66.9321 53.988 66.9313 54.2389C66.9044 54.5255 66.991 54.8113 67.1725 55.0347C67.3541 55.2582 67.6161 55.4014 67.9022 55.4337Z" fill="#030303"/>
<path d="M78.6077 55.4337C78.8535 55.4843 79.1089 55.4577 79.3389 55.3575C79.5689 55.2572 79.7623 55.0883 79.8926 54.8739C80.0228 54.6594 80.0835 54.4099 80.0664 54.1596C80.0493 53.9093 79.9552 53.6704 79.797 53.4756C79.6387 53.2809 79.4242 53.1399 79.1826 53.0719C78.9411 53.0039 78.6845 53.0123 78.4479 53.0958C78.2113 53.1794 78.0064 53.3342 77.8612 53.5388C77.716 53.7434 77.6377 53.988 77.6369 54.2389C77.6099 54.5255 77.6965 54.8113 77.8781 55.0347C78.0596 55.2582 78.3216 55.4014 78.6077 55.4337Z" fill="#030303"/>
<path d="M64.9524 50.6708C65.3012 50.0893 65.8017 49.6137 66.4003 49.2951C66.999 48.9766 67.673 48.827 68.3502 48.8626" stroke="#030303" stroke-width="1.03481" stroke-linecap="round" stroke-linejoin="round"/>
<path d="M81.2108 50.6708C80.862 50.0893 80.3615 49.6137 79.7629 49.2951C79.1642 48.9766 78.4902 48.827 77.813 48.8626" stroke="#030303" stroke-width="1.03481" stroke-linecap="round" stroke-linejoin="round"/>
<path d="M6.39478 149.352C6.39478 149.352 18.4765 138.337 42.8746 145.538" stroke="#FFF7F4" stroke-width="0.517407" stroke-miterlimit="10"/>
<path d="M131.965 130.571C131.965 130.571 138.808 125.082 153.381 127.21" stroke="#FFF7F4" stroke-width="0.517407" stroke-miterlimit="10"/>
<path d="M71.4119 115.171C71.4119 115.171 74.8737 121.865 78.7889 121.433C82.7041 121.001 93.0416 109.095 90.6786 102.764C88.3156 96.432 71.4119 115.171 71.4119 115.171Z" fill="#030303"/>
<path d="M118.843 147.463C118.843 148.188 112.922 157.31 114.181 165.188" stroke="#030303" stroke-width="0.773443" stroke-linecap="round" stroke-linejoin="round"/>
<path d="M101.315 156.819C101.315 156.819 111.418 152.051 111.94 151.027C112.463 150.002 112.335 149.064 112.335 147.826" stroke="#030303" stroke-width="0.773443" stroke-linecap="round" stroke-linejoin="round"/>
<path d="M103.865 159.272C103.865 159.272 106.382 160.489 105.998 164.804C105.998 164.804 127.969 166.351 138.701 172.16" stroke="#030303" stroke-width="0.773443" stroke-linecap="round" stroke-linejoin="round"/>
<path d="M112.111 207.226C108.153 205.259 104.513 202.708 101.315 199.657" stroke="#030303" stroke-width="0.773443" stroke-linecap="round" stroke-linejoin="round"/>
<path d="M102.094 190.094C102.59 190.558 103.07 191.027 103.55 191.491C107.092 194.916 110.751 198.452 115.92 200.762" stroke="#030303" stroke-width="0.773443" stroke-linecap="round" stroke-linejoin="round"/>
<path d="M103.449 202.933C102.216 205.434 100.814 208.123 99.6667 210.902" stroke="#030303" stroke-width="0.773443" stroke-linecap="round" stroke-linejoin="round"/>
<path d="M105.945 186.936C105.681 188.428 105.681 189.956 105.945 191.448" stroke="#030303" stroke-width="0.773443" stroke-linecap="round" stroke-linejoin="round"/>
<path d="M93.4417 120.062C91.7508 119.528 85.0352 125.07 83.7176 133.813C82.4001 142.556 83.7176 158.174 83.7176 158.174C83.7176 158.174 85.3179 175.974 89.2118 177.425C93.1056 178.875 97.581 176.518 97.581 171.797C97.581 167.076 95.6127 165.354 95.6127 165.354L94.4925 149.73L98.189 136.56C98.189 136.56 109.577 124.98 93.4417 120.062Z" fill="#F2B864"/>
<path d="M90.6733 121.283C88.0543 123.347 84.6191 127.823 83.739 133.813" stroke="#030303" stroke-width="0.773443" stroke-linecap="round" stroke-linejoin="round"/>
<path d="M89.0358 88.292C89.0358 88.292 95.7408 73.2391 97.6184 75.1114C99.496 76.9837 100.403 84.0994 99.1759 86.8838C97.9491 89.6682 99.9547 93.3487 92.2416 95.0182C84.5285 96.6878 89.0358 88.292 89.0358 88.292Z" fill="#E0A24F"/>
<path d="M71.8761 87.3636C71.8761 87.3636 70.964 70.908 68.5476 72.0068C66.1313 73.1056 62.7441 79.4158 62.8988 82.4563C63.0535 85.4967 59.869 88.2171 66.462 92.5164C73.0549 96.8156 71.8761 87.3636 71.8761 87.3636Z" fill="#E0A24F"/>
<path d="M93.7298 95.1515C93.7298 95.2582 93.7298 95.3702 93.7298 95.4769C93.7625 97.2064 93.5341 98.9309 93.0524 100.592C92.967 100.918 92.871 101.254 92.7644 101.584C91.6658 104.892 89.9919 107.98 87.8197 110.706C87.082 111.639 86.2913 112.53 85.4513 113.373L84.9179 113.874C84.2668 114.502 83.5831 115.095 82.8696 115.65C78.661 118.904 75.4926 118.68 71.4013 117.624C69.0223 117.005 67.5021 113.666 66.6006 110.258C66.2542 108.939 65.9818 107.601 65.7845 106.252C65.5553 104.964 65.4588 103.655 65.4965 102.347C65.8432 100.267 66.4513 99.2214 66.2913 97.1198C66.2913 96.8264 66.1046 95.1568 66.1046 94.8581C66.1046 87.7211 72.0627 82.2217 79.7652 82.2217C87.4676 82.2217 93.7298 88.0092 93.7298 95.1515Z" fill="#F2B864"/>
<path d="M84.1391 98.773C84.9639 98.773 85.6326 98.0326 85.6326 97.1194C85.6326 96.2062 84.9639 95.4658 84.1391 95.4658C83.3142 95.4658 82.6455 96.2062 82.6455 97.1194C82.6455 98.0326 83.3142 98.773 84.1391 98.773Z" fill="#030303"/>
<path opacity="0.1" d="M87.8091 110.706C87.0714 111.64 86.2807 112.53 85.4407 113.373L84.9073 113.875C84.2562 114.502 83.5725 115.095 82.859 115.651C78.6504 118.905 75.482 118.681 71.3907 117.624C69.0117 117.006 67.4915 113.667 66.59 110.258C66.2436 108.939 65.9712 107.602 65.7739 106.252C68.3708 103.837 71.7972 102.513 75.3433 102.556C81.1468 102.556 86.0915 105.969 87.8091 110.706Z" fill="white"/>
<path d="M70.8464 98.1597C71.6242 98.1597 72.2546 97.4193 72.2546 96.5061C72.2546 95.5929 71.6242 94.8525 70.8464 94.8525C70.0687 94.8525 69.4382 95.5929 69.4382 96.5061C69.4382 97.4193 70.0687 98.1597 70.8464 98.1597Z" fill="#030303"/>
<path d="M90.9507 87.4121C90.9507 87.4121 92.9296 89.2684 93.6177 93.621" stroke="#030303" stroke-width="0.634757" stroke-linecap="round" stroke-linejoin="round"/>
<path d="M67.1125 89.9885C67.9949 88.1909 69.1481 86.5394 70.5317 85.0918" stroke="#030303" stroke-width="0.634757" stroke-linecap="round" stroke-linejoin="round"/>
<path d="M78.8211 109.116C78.7517 110.289 77.0768 112.012 75.1459 111.895C73.2149 111.777 71.7587 109.868 71.8281 108.694C71.8974 107.521 73.519 106.667 75.4499 106.779C77.3808 106.891 78.8904 107.942 78.8211 109.116Z" fill="#030303"/>
<path d="M70.1104 112.162C70.7438 112.725 71.5412 113.07 72.3852 113.146C73.2293 113.222 74.0753 113.024 74.799 112.584C75.6914 113.219 76.7508 113.58 77.8459 113.619C78.9409 113.659 80.0237 113.377 80.9599 112.808" stroke="#030303" stroke-width="0.634757" stroke-linecap="round" stroke-linejoin="round"/>
<path d="M74.0417 111.239V112.375" stroke="#030303" stroke-width="0.688098" stroke-linecap="round" stroke-linejoin="round"/>
<path d="M83.1309 147.462C83.1309 147.462 83.4829 172.815 88.1822 176.619C92.8816 180.422 96.7168 175.594 97.3836 173.445C98.0503 171.295 95.6126 165.353 95.6126 165.353L94.4925 149.729L98.189 136.56" stroke="#030303" stroke-width="0.773443" stroke-linecap="round" stroke-linejoin="round"/>
<path d="M88.1823 170.41C88.1823 170.41 87.7876 175.456 89.2118 176.88" stroke="#030303" stroke-width="0.773443" stroke-linecap="round" stroke-linejoin="round"/>
<path d="M93.0843 169.738C93.0843 169.738 92.3376 175.318 93.9004 176.881" stroke="#030303" stroke-width="0.773443" stroke-linecap="round" stroke-linejoin="round"/>
<path d="M69.5023 121.283L67.7528 122.681C67.7528 122.681 64.0562 137.552 62.8721 143.958C61.6879 150.365 61.6932 155.309 63.2348 160.003C64.7763 164.697 67.6834 171.909 70.7025 173.301C73.7216 174.693 76.9381 174.571 78.2929 169.727C79.6478 164.884 76.7407 162.073 75.2898 160.617C73.839 159.161 72.3828 150.813 72.3828 150.813L77.3808 138.283L69.5023 121.283Z" fill="#F2B864"/>
<path d="M71.908 129.119L76.5059 136.582" stroke="#030303" stroke-width="0.773443" stroke-linecap="round" stroke-linejoin="round"/>
<path d="M63.2349 160.019C64.7818 164.718 67.6835 171.925 70.7026 173.317C73.7217 174.709 76.9381 174.586 78.293 169.743C79.6479 164.9 76.7408 162.088 75.2899 160.632C74.6872 160.03 74.0791 158.227 73.583 156.333" stroke="#030303" stroke-width="0.773443" stroke-linecap="round" stroke-linejoin="round"/>
<path d="M69.865 168.233C69.865 168.233 70.5798 171.855 72.7721 172.885" stroke="#030303" stroke-width="0.773443" stroke-linecap="round" stroke-linejoin="round"/>
<path d="M74.2069 166.351C74.2069 166.351 73.7695 168.42 76.874 170.559" stroke="#030303" stroke-width="0.773443" stroke-linecap="round" stroke-linejoin="round"/>
<path d="M106.814 123.043C106.814 123.043 105.07 121.854 103.849 125.268C102.627 128.682 100.84 132.991 100.84 132.991L99.4319 135.077" stroke="#030303" stroke-width="0.773443" stroke-linecap="round" stroke-linejoin="round"/>
<path d="M134.749 141.26C134.749 141.26 144.916 149.56 138.168 166.33" stroke="#030303" stroke-width="0.773443" stroke-linecap="round" stroke-linejoin="round"/>
</g>
</g>
<defs>
<clipPath id="clip0_356_13241">
<rect width="162.22" height="205.34" fill="white"/>
</clipPath>
<clipPath id="clip1_356_13241">
<rect width="150" height="201.362" fill="white" transform="translate(6 24)"/>
</clipPath>
</defs>
</svg>
